mtllib Collision_4_1.mtl
usemtl 
g 

v 270 23.85 749.378
v 270 43.09906 749.378
v 500.6441 23.85 749.378
v 500.6441 23.85 749.378
v 270 43.09906 749.378
v 500.6441 43.09906 749.378
v 474.004 23.85 883.5
v 474.004 40.22107 883.5
v 270 23.85 883.5
v 270 23.85 883.5
v 474.004 40.22107 883.5
v 270 40.22107 883.5
v 270 43.09906 749.378
v 270 23.85 749.378
v 270 64.5 770.7789
v 270 64.5 770.7789
v 270 23.85 749.378
v 270 64.5 859.2211
v 270 64.5 859.2211
v 270 23.85 749.378
v 270 40.22107 883.5
v 270 40.22107 883.5
v 270 23.85 749.378
v 270 23.85 883.5
v 541 23.85 840.266
v 541 23.85 789.7339
v 541 64.5 840.266
v 541 64.5 840.266
v 541 23.85 789.7339
v 541 64.5 789.7339
v 270 23.85 749.378
v 500.6441 23.85 749.378
v 270 23.85 883.5
v 270 23.85 883.5
v 500.6441 23.85 749.378
v 474.004 23.85 883.5
v 474.004 23.85 883.5
v 500.6441 23.85 749.378
v 514.5683 23.85 866.6978
v 514.5683 23.85 866.6978
v 500.6441 23.85 749.378
v 541 23.85 840.266
v 541 23.85 840.266
v 500.6441 23.85 749.378
v 541 23.85 789.7339
v 270 64.5 770.7789
v 270 64.5 859.2211
v 522.045 64.5 770.7789
v 522.045 64.5 770.7789
v 270 64.5 859.2211
v 541 64.5 789.7339
v 541 64.5 789.7339
v 270 64.5 859.2211
v 541 64.5 840.266
v 541 64.5 840.266
v 270 64.5 859.2211
v 522.0449 64.5 859.2211
v 514.5683 57.02334 866.6978
v 514.5683 23.85 866.6978
v 522.0449 64.5 859.2211
v 522.0449 64.5 859.2211
v 514.5683 23.85 866.6978
v 541 64.5 840.266
v 541 64.5 840.266
v 514.5683 23.85 866.6978
v 541 23.85 840.266
v 500.6441 23.85 749.378
v 500.6441 43.09906 749.378
v 541 23.85 789.7339
v 541 23.85 789.7339
v 500.6441 43.09906 749.378
v 541 64.5 789.7339
v 541 64.5 789.7339
v 500.6441 43.09906 749.378
v 522.045 64.5 770.7789
v 474.004 40.22107 883.5
v 514.5683 57.02334 866.6978
v 270 40.22107 883.5
v 270 40.22107 883.5
v 514.5683 57.02334 866.6978
v 270 64.5 859.2211
v 270 64.5 859.2211
v 514.5683 57.02334 866.6978
v 522.0449 64.5 859.2211
v 500.6441 43.09906 749.378
v 270 43.09906 749.378
v 522.045 64.5 770.7789
v 522.045 64.5 770.7789
v 270 43.09906 749.378
v 270 64.5 770.7789
v 514.5683 57.02334 866.6978
v 474.004 40.22107 883.5
v 514.5683 23.85 866.6978
v 514.5683 23.85 866.6978
v 474.004 40.22107 883.5
v 474.004 23.85 883.5
v 500.644 -64.5 749.378
v 270 -64.5 749.378
v 500.644 -41.38836 749.378
v 500.644 -41.38836 749.378
v 270 -64.5 749.378
v 421.9056 37.35 749.378
v 421.9056 37.35 749.378
v 270 -64.5 749.378
v 270 37.35 749.378
v 497.766 -64.5 883.5
v 497.766 -42.75907 883.5
v 270 -64.5 883.5
v 270 -64.5 883.5
v 497.766 -42.75907 883.5
v 270 37.35 883.5
v 270 37.35 883.5
v 497.766 -42.75907 883.5
v 417.657 37.35 883.5
v 270 37.35 749.378
v 270 -64.5 749.378
v 270 37.35 883.5
v 270 37.35 883.5
v 270 -64.5 749.378
v 270 -64.5 883.5
v 541 -32.08095 789.734
v 541 -32.08095 840.266
v 541 -64.5 789.734
v 541 -64.5 789.734
v 541 -32.08095 840.266
v 541 -64.5 840.266
v 270 -64.5 749.378
v 500.644 -64.5 749.378
v 270 -64.5 883.5
v 270 -64.5 883.5
v 500.644 -64.5 749.378
v 497.766 -64.5 883.5
v 497.766 -64.5 883.5
v 500.644 -64.5 749.378
v 541 -64.5 840.266
v 541 -64.5 840.266
v 500.644 -64.5 749.378
v 541 -64.5 789.734
v 421.9056 37.35 749.378
v 270 37.35 749.378
v 471.5691 37.35 784.4953
v 471.5691 37.35 784.4953
v 270 37.35 749.378
v 471.5691 37.35 845.3784
v 471.5691 37.35 845.3784
v 270 37.35 749.378
v 417.657 37.35 883.5
v 417.657 37.35 883.5
v 270 37.35 749.378
v 270 37.35 883.5
v 541 -32.08095 789.734
v 535.7614 -26.84229 784.4953
v 541 -32.08095 840.266
v 541 -32.08095 840.266
v 535.7614 -26.84229 784.4953
v 535.8876 -26.96858 845.3784
v 535.8876 -26.96858 845.3784
v 535.7614 -26.84229 784.4953
v 471.5691 37.35 845.3784
v 471.5691 37.35 845.3784
v 535.7614 -26.84229 784.4953
v 471.5691 37.35 784.4953
v 535.8876 -26.96858 845.3784
v 497.766 -42.75907 883.5
v 541 -32.08095 840.266
v 541 -32.08095 840.266
v 497.766 -42.75907 883.5
v 541 -64.5 840.266
v 541 -64.5 840.266
v 497.766 -42.75907 883.5
v 497.766 -64.5 883.5
v 500.644 -64.5 749.378
v 500.644 -41.38836 749.378
v 541 -64.5 789.734
v 541 -64.5 789.734
v 500.644 -41.38836 749.378
v 541 -32.08095 789.734
v 541 -32.08095 789.734
v 500.644 -41.38836 749.378
v 535.7614 -26.84229 784.4953
v 417.657 37.35 883.5
v 497.766 -42.75907 883.5
v 471.5691 37.35 845.3784
v 471.5691 37.35 845.3784
v 497.766 -42.75907 883.5
v 535.8876 -26.96858 845.3784
v 535.7614 -26.84229 784.4953
v 500.644 -41.38836 749.378
v 471.5691 37.35 784.4953
v 471.5691 37.35 784.4953
v 500.644 -41.38836 749.378
v 421.9056 37.35 749.378
v 342.7001 -60.351 851.932
v 155.3 -60.351 851.932
v 364 -39.05107 851.932
v 364 -39.05107 851.932
v 155.3 -60.351 851.932
v 364 36.92107 851.932
v 364 36.92107 851.932
v 155.3 -60.351 851.932
v 340.4381 60.483 851.932
v 340.4381 60.483 851.932
v 155.3 -60.351 851.932
v 155.3 60.483 851.932
v 341.8141 -27.62109 896.1
v 341.8141 27.62109 896.1
v 155.3 -27.62109 896.1
v 155.3 -27.62109 896.1
v 341.8141 27.62109 896.1
v 155.3 27.62109 896.1
v 155.3 -60.351 851.932
v 155.3 -60.351 863.3701
v 155.3 60.483 851.932
v 155.3 60.483 851.932
v 155.3 -60.351 863.3701
v 155.3 60.483 863.2381
v 155.3 60.483 863.2381
v 155.3 -60.351 863.3701
v 155.3 27.62109 896.1
v 155.3 27.62109 896.1
v 155.3 -60.351 863.3701
v 155.3 -27.62109 896.1
v 364 36.92107 873.914
v 364 -39.05107 873.914
v 364 36.92107 851.932
v 364 36.92107 851.932
v 364 -39.05107 873.914
v 364 -39.05107 851.932
v 155.3 -60.351 851.932
v 342.7001 -60.351 851.932
v 155.3 -60.351 863.3701
v 155.3 -60.351 863.3701
v 342.7001 -60.351 851.932
v 342.7001 -60.351 863.3701
v 155.3 60.483 863.2381
v 340.4381 60.483 863.2381
v 155.3 60.483 851.932
v 155.3 60.483 851.932
v 340.4381 60.483 863.2381
v 340.4381 60.483 851.932
v 341.8141 27.62109 896.1
v 357.557 43.36406 880.357
v 155.3 27.62109 896.1
v 155.3 27.62109 896.1
v 357.557 43.36406 880.357
v 155.3 60.483 863.2381
v 155.3 60.483 863.2381
v 357.557 43.36406 880.357
v 340.4381 60.483 863.2381
v 358.622 -44.42905 879.292
v 341.8141 -27.62109 896.1
v 342.7001 -60.351 863.3701
v 342.7001 -60.351 863.3701
v 341.8141 -27.62109 896.1
v 155.3 -60.351 863.3701
v 155.3 -60.351 863.3701
v 341.8141 -27.62109 896.1
v 155.3 -27.62109 896.1
v 364 36.92107 873.914
v 364 36.92107 851.932
v 357.557 43.36406 880.357
v 357.557 43.36406 880.357
v 364 36.92107 851.932
v 340.4381 60.483 863.2381
v 340.4381 60.483 863.2381
v 364 36.92107 851.932
v 340.4381 60.483 851.932
v 357.557 43.36406 880.357
v 341.8141 27.62109 896.1
v 364 36.92107 873.914
v 364 36.92107 873.914
v 341.8141 27.62109 896.1
v 364 -39.05107 873.914
v 364 -39.05107 873.914
v 341.8141 27.62109 896.1
v 358.622 -44.42905 879.292
v 358.622 -44.42905 879.292
v 341.8141 27.62109 896.1
v 341.8141 -27.62109 896.1
v 342.7001 -60.351 863.3701
v 342.7001 -60.351 851.932
v 358.622 -44.42905 879.292
v 358.622 -44.42905 879.292
v 342.7001 -60.351 851.932
v 364 -39.05107 873.914
v 364 -39.05107 873.914
v 342.7001 -60.351 851.932
v 364 -39.05107 851.932
v 155.3 -34.32409 740.603
v 155.3 34.32409 740.603
v 314.659 -34.32409 740.603
v 314.659 -34.32409 740.603
v 155.3 34.32409 740.603
v 314.659 34.32409 740.603
v 274.372 -46.55005 874.946
v 274.372 46.7101 874.946
v 155.3 -46.55005 874.946
v 155.3 -46.55005 874.946
v 274.372 46.7101 874.946
v 155.3 46.7101 874.946
v 155.3 -74.479 780.7579
v 155.3 -74.479 847.017
v 155.3 -34.32409 740.603
v 155.3 -34.32409 740.603
v 155.3 -74.479 847.017
v 155.3 34.32409 740.603
v 155.3 34.32409 740.603
v 155.3 -74.479 847.017
v 155.3 74.015 780.2939
v 155.3 74.015 780.2939
v 155.3 -74.479 847.017
v 155.3 74.015 847.6411
v 155.3 74.015 847.6411
v 155.3 -74.479 847.017
v 155.3 46.7101 874.946
v 155.3 46.7101 874.946
v 155.3 -74.479 847.017
v 155.3 -46.55005 874.946
v 314.659 -34.32409 740.603
v 314.659 34.32409 740.603
v 314.659 -74.479 780.7579
v 314.659 -74.479 780.7579
v 314.659 34.32409 740.603
v 314.659 -74.479 834.659
v 314.659 -74.479 834.659
v 314.659 34.32409 740.603
v 314.659 74.015 834.659
v 314.659 74.015 834.659
v 314.659 34.32409 740.603
v 314.659 74.015 780.2939
v 155.3 -74.479 847.017
v 155.3 -74.479 780.7579
v 302.301 -74.479 847.017
v 302.301 -74.479 847.017
v 155.3 -74.479 780.7579
v 314.659 -74.479 834.659
v 314.659 -74.479 834.659
v 155.3 -74.479 780.7579
v 314.659 -74.479 780.7579
v 155.3 74.015 780.2939
v 155.3 74.015 847.6411
v 314.659 74.015 780.2939
v 314.659 74.015 780.2939
v 155.3 74.015 847.6411
v 314.659 74.015 834.659
v 314.659 74.015 834.659
v 155.3 74.015 847.6411
v 301.6769 74.015 847.6411
v 274.372 -46.55005 874.946
v 302.301 -74.479 847.017
v 274.372 46.7101 874.946
v 274.372 46.7101 874.946
v 302.301 -74.479 847.017
v 301.6769 74.015 847.6411
v 301.6769 74.015 847.6411
v 302.301 -74.479 847.017
v 314.659 74.015 834.659
v 314.659 74.015 834.659
v 302.301 -74.479 847.017
v 314.659 -74.479 834.659
v 155.3 -74.479 780.7579
v 155.3 -34.32409 740.603
v 314.659 -74.479 780.7579
v 314.659 -74.479 780.7579
v 155.3 -34.32409 740.603
v 314.659 -34.32409 740.603
v 314.659 34.32409 740.603
v 155.3 34.32409 740.603
v 314.659 74.015 780.2939
v 314.659 74.015 780.2939
v 155.3 34.32409 740.603
v 155.3 74.015 780.2939
v 302.301 -74.479 847.017
v 274.372 -46.55005 874.946
v 155.3 -74.479 847.017
v 155.3 -74.479 847.017
v 274.372 -46.55005 874.946
v 155.3 -46.55005 874.946
v 155.3 46.7101 874.946
v 274.372 46.7101 874.946
v 155.3 74.015 847.6411
v 155.3 74.015 847.6411
v 274.372 46.7101 874.946
v 301.6769 74.015 847.6411

vn 0 0 -1
vn 0 0 -1
vn 0 0 -1
vn 0 0 -1
vn 0 0 -1
vn 0 0 -1
vn 0 0 1
vn 0 0 1
vn 0 0 1
vn 0 0 1
vn 0 0 1
vn 0 0 1
vn -0.9999999 0 0
vn -0.9999999 0 0
vn -0.9999999 0 0
vn -1 0 0
vn -1 0 0
vn -1 0 0
vn -1 0 0
vn -1 0 0
vn -1 0 0
vn -1 0 0
vn -1 0 0
vn -1 0 0
vn 1 0 0
vn 1 0 0
vn 1 0 0
vn 1 0 0
vn 1 0 0
vn 1 0 0
vn 0 -1 0
vn 0 -1 0
vn 0 -1 0
vn 0 -1 0
vn 0 -1 0
vn 0 -1 0
vn 0 -1 0
vn 0 -1 0
vn 0 -1 0
vn 0 -1 0
vn 0 -1 0
vn 0 -1 0
vn 0 -1 0
vn 0 -1 0
vn 0 -1 0
vn 0 1 0
vn 0 1 0
vn 0 1 0
vn 0 1 0
vn 0 1 0
vn 0 1 0
vn 0 0.9999999 0
vn 0 0.9999999 0
vn 0 0.9999999 0
vn 0 0.9999999 0
vn 0 0.9999999 0
vn 0 0.9999999 0
vn 0.7071097 0 0.7071038
vn 0.7071097 0 0.7071038
vn 0.7071097 0 0.7071038
vn 0.7071068 1.036217E-06 0.7071068
vn 0.7071068 1.036217E-06 0.7071068
vn 0.7071068 1.036217E-06 0.7071068
vn 0.7071076 0 0.707106
vn 0.7071076 0 0.707106
vn 0.7071076 0 0.707106
vn 0.7071071 0 -0.7071065
vn 0.7071071 0 -0.7071065
vn 0.7071071 0 -0.7071065
vn 0.7071071 0 -0.7071065
vn 0.7071071 0 -0.7071065
vn 0.7071071 0 -0.7071065
vn 0.7071068 1.010722E-06 -0.7071068
vn 0.7071068 1.010722E-06 -0.7071068
vn 0.7071068 1.010722E-06 -0.7071068
vn 0 0.7071062 0.7071073
vn 0 0.7071062 0.7071073
vn 0 0.7071062 0.7071073
vn -7.086633E-08 0.7071067 0.7071068
vn -7.086633E-08 0.7071067 0.7071068
vn -7.086633E-08 0.7071067 0.7071068
vn 0 0.7071078 0.7071057
vn 0 0.7071078 0.7071057
vn 0 0.7071078 0.7071057
vn 0 0.7071067 -0.7071068
vn 0 0.7071067 -0.7071068
vn 0 0.7071067 -0.7071068
vn 0 0.7071067 -0.7071068
vn 0 0.7071067 -0.7071068
vn 0 0.7071067 -0.7071068
vn 0.3826827 0 0.9238798
vn 0.3826827 0 0.9238798
vn 0.3826827 0 0.9238798
vn 0.3826827 0 0.9238798
vn 0.3826827 0 0.9238798
vn 0.3826827 0 0.9238798
vn 0 0 -1
vn 0 0 -1
vn 0 0 -1
vn 0 0 -1
vn 0 0 -1
vn 0 0 -1
vn 0 0 -1
vn 0 0 -1
vn 0 0 -1
vn 0 0 1
vn 0 0 1
vn 0 0 1
vn 0 0 1
vn 0 0 1
vn 0 0 1
vn 0 0 1
vn 0 0 1
vn 0 0 1
vn -1 0 0
vn -1 0 0
vn -1 0 0
vn -1 0 0
vn -1 0 0
vn -1 0 0
vn 1 0 0
vn 1 0 0
vn 1 0 0
vn 1 0 0
vn 1 0 0
vn 1 0 0
vn 0 -1 0
vn 0 -1 0
vn 0 -1 0
vn 0 -1 0
vn 0 -1 0
vn 0 -1 0
vn 0 -1 0
vn 0 -1 0
vn 0 -1 0
vn 0 -1 0
vn 0 -1 0
vn 0 -1 0
vn 0 1 0
vn 0 1 0
vn 0 1 0
vn 0 1 0
vn 0 1 0
vn 0 1 0
vn 0 1 0
vn 0 1 0
vn 0 1 0
vn 0 1 0
vn 0 1 0
vn 0 1 0
vn 0.7071075 0.707106 0
vn 0.7071075 0.707106 0
vn 0.7071075 0.707106 0
vn 0.7071069 0.7071065 1.099945E-07
vn 0.7071069 0.7071065 1.099945E-07
vn 0.7071069 0.7071065 1.099945E-07
vn 0.7071068 0.7071067 8.817027E-08
vn 0.7071068 0.7071067 8.817027E-08
vn 0.7071068 0.7071067 8.817027E-08
vn 0.7071068 0.7071068 0
vn 0.7071068 0.7071068 0
vn 0.7071068 0.7071068 0
vn 0.707107 3.914683E-07 0.7071066
vn 0.707107 3.914683E-07 0.7071066
vn 0.707107 3.914683E-07 0.7071066
vn 0.707107 0 0.7071065
vn 0.707107 0 0.7071065
vn 0.707107 0 0.7071065
vn 0.7071071 0 0.7071065
vn 0.7071071 0 0.7071065
vn 0.7071071 0 0.7071065
vn 0.707107 0 -0.7071065
vn 0.707107 0 -0.7071065
vn 0.707107 0 -0.7071065
vn 0.7071071 0 -0.7071065
vn 0.7071071 0 -0.7071065
vn 0.7071071 0 -0.7071065
vn 0.7071078 -6.262172E-06 -0.7071058
vn 0.7071078 -6.262172E-06 -0.7071058
vn 0.7071078 -6.262172E-06 -0.7071058
vn 0.5000002 0.5000002 0.7071066
vn 0.5000002 0.5000002 0.7071066
vn 0.5000002 0.5000002 0.7071066
vn 0.5000002 0.5000002 0.7071065
vn 0.5000002 0.5000002 0.7071065
vn 0.5000002 0.5000002 0.7071065
vn 0.4999998 0.4999998 -0.707107
vn 0.4999998 0.4999998 -0.707107
vn 0.4999998 0.4999998 -0.707107
vn 0.4999997 0.4999998 -0.707107
vn 0.4999997 0.4999998 -0.707107
vn 0.4999997 0.4999998 -0.707107
vn 0 0 -1
vn 0 0 -1
vn 0 0 -1
vn 0 0 -0.9999999
vn 0 0 -0.9999999
vn 0 0 -0.9999999
vn 0 0 -1
vn 0 0 -1
vn 0 0 -1
vn 0 0 -1
vn 0 0 -1
vn 0 0 -1
vn 0 0 1
vn 0 0 1
vn 0 0 1
vn 0 0 1
vn 0 0 1
vn 0 0 1
vn -1 0 0
vn -1 0 0
vn -1 0 0
vn -0.9999999 0 0
vn -0.9999999 0 0
vn -0.9999999 0 0
vn -0.9999999 0 0
vn -0.9999999 0 0
vn -0.9999999 0 0
vn -1 0 0
vn -1 0 0
vn -1 0 0
vn 1 0 0
vn 1 0 0
vn 1 0 0
vn 1 0 0
vn 1 0 0
vn 1 0 0
vn 0 -1 0
vn 0 -1 0
vn 0 -1 0
vn 0 -1 0
vn 0 -1 0
vn 0 -1 0
vn 0 0.9999999 0
vn 0 0.9999999 0
vn 0 0.9999999 0
vn 0 0.9999999 0
vn 0 0.9999999 0
vn 0 0.9999999 0
vn 0 0.7071071 0.7071065
vn 0 0.7071071 0.7071065
vn 0 0.7071071 0.7071065
vn 1.10387E-07 0.7071064 0.7071071
vn 1.10387E-07 0.7071064 0.7071071
vn 1.10387E-07 0.7071064 0.7071071
vn 0 0.7071058 0.7071077
vn 0 0.7071058 0.7071077
vn 0 0.7071058 0.7071077
vn 7.257157E-07 -0.7071069 0.7071067
vn 7.257157E-07 -0.7071069 0.7071067
vn 7.257157E-07 -0.7071069 0.7071067
vn 0 -0.7071069 0.7071067
vn 0 -0.7071069 0.7071067
vn 0 -0.7071069 0.7071067
vn 0 -0.7071069 0.7071067
vn 0 -0.7071069 0.7071067
vn 0 -0.7071069 0.7071067
vn 0.7071065 0.7071069 0
vn 0.7071065 0.7071069 0
vn 0.7071065 0.7071069 0
vn 0.707107 0.7071066 2.169117E-07
vn 0.707107 0.7071066 2.169117E-07
vn 0.707107 0.7071066 2.169117E-07
vn 0.7071069 0.7071066 0
vn 0.7071069 0.7071066 0
vn 0.7071069 0.7071066 0
vn 0.7071071 6.914238E-07 0.7071065
vn 0.7071071 6.914238E-07 0.7071065
vn 0.7071071 6.914238E-07 0.7071065
vn 0.7071072 0 0.7071063
vn 0.7071072 0 0.7071063
vn 0.7071072 0 0.7071063
vn 0.7071069 -2.483594E-07 0.7071066
vn 0.7071069 -2.483594E-07 0.7071066
vn 0.7071069 -2.483594E-07 0.7071066
vn 0.7071074 0 0.7071061
vn 0.7071074 0 0.7071061
vn 0.7071074 0 0.7071061
vn 0.707107 -0.7071066 0
vn 0.707107 -0.7071066 0
vn 0.707107 -0.7071066 0
vn 0.7071068 -0.7071069 3.708246E-07
vn 0.7071068 -0.7071069 3.708246E-07
vn 0.7071068 -0.7071069 3.708246E-07
vn 0.7071069 -0.7071066 0
vn 0.7071069 -0.7071066 0
vn 0.7071069 -0.7071066 0
vn 0 0 -1
vn 0 0 -1
vn 0 0 -1
vn 0 0 -1
vn 0 0 -1
vn 0 0 -1
vn 0 0 1
vn 0 0 1
vn 0 0 1
vn 0 0 1
vn 0 0 1
vn 0 0 1
vn -1 0 0
vn -1 0 0
vn -1 0 0
vn -1 0 0
vn -1 0 0
vn -1 0 0
vn -1 0 0
vn -1 0 0
vn -1 0 0
vn -1 0 0
vn -1 0 0
vn -1 0 0
vn -1 0 0
vn -1 0 0
vn -1 0 0
vn -1 0 0
vn -1 0 0
vn -1 0 0
vn 1 0 0
vn 1 0 0
vn 1 0 0
vn 1 0 0
vn 1 0 0
vn 1 0 0
vn 1 0 0
vn 1 0 0
vn 1 0 0
vn 1 0 0
vn 1 0 0
vn 1 0 0
vn 0 -1 0
vn 0 -1 0
vn 0 -1 0
vn 0 -1 0
vn 0 -1 0
vn 0 -1 0
vn 0 -1 0
vn 0 -1 0
vn 0 -1 0
vn 0 1 0
vn 0 1 0
vn 0 1 0
vn 0 1 0
vn 0 1 0
vn 0 1 0
vn 0 0.9999999 0
vn 0 0.9999999 0
vn 0 0.9999999 0
vn 0.7071068 0 0.7071068
vn 0.7071068 0 0.7071068
vn 0.7071068 0 0.7071068
vn 0.7071065 -1.480648E-07 0.7071071
vn 0.7071065 -1.480648E-07 0.7071071
vn 0.7071065 -1.480648E-07 0.7071071
vn 0.7071084 -1.287299E-07 0.7071052
vn 0.7071084 -1.287299E-07 0.7071052
vn 0.7071084 -1.287299E-07 0.7071052
vn 0.7071077 0 0.7071059
vn 0.7071077 0 0.7071059
vn 0.7071077 0 0.7071059
vn 0 -0.7071066 -0.7071068
vn 0 -0.7071066 -0.7071068
vn 0 -0.7071066 -0.7071068
vn 0 -0.7071066 -0.7071068
vn 0 -0.7071066 -0.7071068
vn 0 -0.7071066 -0.7071068
vn 0 0.7071069 -0.7071066
vn 0 0.7071069 -0.7071066
vn 0 0.7071069 -0.7071066
vn 0 0.7071069 -0.7071066
vn 0 0.7071069 -0.7071066
vn 0 0.7071069 -0.7071066
vn 0 -0.7071068 0.7071067
vn 0 -0.7071068 0.7071067
vn 0 -0.7071068 0.7071067
vn 0 -0.7071068 0.7071067
vn 0 -0.7071068 0.7071067
vn 0 -0.7071068 0.7071067
vn 0 0.7071065 0.7071072
vn 0 0.7071065 0.7071072
vn 0 0.7071065 0.7071072
vn 0 0.7071065 0.7071071
vn 0 0.7071065 0.7071071
vn 0 0.7071065 0.7071071



f 1//1 2//2 3//3
f 4//4 5//5 6//6
f 7//7 8//8 9//9
f 10//10 11//11 12//12
f 13//13 14//14 15//15
f 16//16 17//17 18//18
f 19//19 20//20 21//21
f 22//22 23//23 24//24
f 25//25 26//26 27//27
f 28//28 29//29 30//30
f 31//31 32//32 33//33
f 34//34 35//35 36//36
f 37//37 38//38 39//39
f 40//40 41//41 42//42
f 43//43 44//44 45//45
f 46//46 47//47 48//48
f 49//49 50//50 51//51
f 52//52 53//53 54//54
f 55//55 56//56 57//57
f 58//58 59//59 60//60
f 61//61 62//62 63//63
f 64//64 65//65 66//66
f 67//67 68//68 69//69
f 70//70 71//71 72//72
f 73//73 74//74 75//75
f 76//76 77//77 78//78
f 79//79 80//80 81//81
f 82//82 83//83 84//84
f 85//85 86//86 87//87
f 88//88 89//89 90//90
f 91//91 92//92 93//93
f 94//94 95//95 96//96
f 97//97 98//98 99//99
f 100//100 101//101 102//102
f 103//103 104//104 105//105
f 106//106 107//107 108//108
f 109//109 110//110 111//111
f 112//112 113//113 114//114
f 115//115 116//116 117//117
f 118//118 119//119 120//120
f 121//121 122//122 123//123
f 124//124 125//125 126//126
f 127//127 128//128 129//129
f 130//130 131//131 132//132
f 133//133 134//134 135//135
f 136//136 137//137 138//138
f 139//139 140//140 141//141
f 142//142 143//143 144//144
f 145//145 146//146 147//147
f 148//148 149//149 150//150
f 151//151 152//152 153//153
f 154//154 155//155 156//156
f 157//157 158//158 159//159
f 160//160 161//161 162//162
f 163//163 164//164 165//165
f 166//166 167//167 168//168
f 169//169 170//170 171//171
f 172//172 173//173 174//174
f 175//175 176//176 177//177
f 178//178 179//179 180//180
f 181//181 182//182 183//183
f 184//184 185//185 186//186
f 187//187 188//188 189//189
f 190//190 191//191 192//192
f 193//193 194//194 195//195
f 196//196 197//197 198//198
f 199//199 200//200 201//201
f 202//202 203//203 204//204
f 205//205 206//206 207//207
f 208//208 209//209 210//210
f 211//211 212//212 213//213
f 214//214 215//215 216//216
f 217//217 218//218 219//219
f 220//220 221//221 222//222
f 223//223 224//224 225//225
f 226//226 227//227 228//228
f 229//229 230//230 231//231
f 232//232 233//233 234//234
f 235//235 236//236 237//237
f 238//238 239//239 240//240
f 241//241 242//242 243//243
f 244//244 245//245 246//246
f 247//247 248//248 249//249
f 250//250 251//251 252//252
f 253//253 254//254 255//255
f 256//256 257//257 258//258
f 259//259 260//260 261//261
f 262//262 263//263 264//264
f 265//265 266//266 267//267
f 268//268 269//269 270//270
f 271//271 272//272 273//273
f 274//274 275//275 276//276
f 277//277 278//278 279//279
f 280//280 281//281 282//282
f 283//283 284//284 285//285
f 286//286 287//287 288//288
f 289//289 290//290 291//291
f 292//292 293//293 294//294
f 295//295 296//296 297//297
f 298//298 299//299 300//300
f 301//301 302//302 303//303
f 304//304 305//305 306//306
f 307//307 308//308 309//309
f 310//310 311//311 312//312
f 313//313 314//314 315//315
f 316//316 317//317 318//318
f 319//319 320//320 321//321
f 322//322 323//323 324//324
f 325//325 326//326 327//327
f 328//328 329//329 330//330
f 331//331 332//332 333//333
f 334//334 335//335 336//336
f 337//337 338//338 339//339
f 340//340 341//341 342//342
f 343//343 344//344 345//345
f 346//346 347//347 348//348
f 349//349 350//350 351//351
f 352//352 353//353 354//354
f 355//355 356//356 357//357
f 358//358 359//359 360//360
f 361//361 362//362 363//363
f 364//364 365//365 366//366
f 367//367 368//368 369//369
f 370//370 371//371 372//372
f 373//373 374//374 375//375
f 376//376 377//377 378//378
f 379//379 380//380 381//381
f 382//382 383//383 384//384
