mtllib Collision_4_2.mtl
usemtl 
g 

v 265 18.85 744.378
v 265 45.17012 744.378
v 502.7151 18.85 744.378
v 502.7151 18.85 744.378
v 265 45.17012 744.378
v 502.7151 45.17012 744.378
v 499.8371 18.85 888.5
v 499.8371 42.29213 888.5
v 265 18.85 888.5
v 265 18.85 888.5
v 499.8371 42.29213 888.5
v 265 42.29213 888.5
v 265 45.17012 744.378
v 265 18.85 744.378
v 265 69.5 768.7079
v 265 69.5 768.7079
v 265 18.85 744.378
v 265 69.5 861.2921
v 265 69.5 861.2921
v 265 18.85 744.378
v 265 42.29213 888.5
v 265 42.29213 888.5
v 265 18.85 744.378
v 265 18.85 888.5
v 546 18.85 787.6628
v 546 54.88613 787.6628
v 546 18.85 842.3371
v 546 18.85 842.3371
v 546 54.88613 787.6628
v 546 54.88613 842.3371
v 265 18.85 744.378
v 502.7151 18.85 744.378
v 265 18.85 888.5
v 265 18.85 888.5
v 502.7151 18.85 744.378
v 499.8371 18.85 888.5
v 499.8371 18.85 888.5
v 502.7151 18.85 744.378
v 546 18.85 842.3371
v 546 18.85 842.3371
v 502.7151 18.85 744.378
v 546 18.85 787.6628
v 265 69.5 768.7079
v 265 69.5 861.2921
v 527.045 69.5 768.7079
v 527.045 69.5 768.7079
v 265 69.5 861.2921
v 531.3861 69.5 773.049
v 531.3861 69.5 773.049
v 265 69.5 861.2921
v 531.3861 69.5 856.9509
v 531.3861 69.5 856.9509
v 265 69.5 861.2921
v 527.0449 69.5 861.2921
v 499.8371 42.29213 888.5
v 499.8371 18.85 888.5
v 527.0449 69.5 861.2921
v 527.0449 69.5 861.2921
v 499.8371 18.85 888.5
v 531.3861 69.5 856.9509
v 531.3861 69.5 856.9509
v 499.8371 18.85 888.5
v 546 54.88613 842.3371
v 546 54.88613 842.3371
v 499.8371 18.85 888.5
v 546 18.85 842.3371
v 502.7151 18.85 744.378
v 502.7151 45.17012 744.378
v 546 18.85 787.6628
v 546 18.85 787.6628
v 502.7151 45.17012 744.378
v 546 54.88613 787.6628
v 546 54.88613 787.6628
v 502.7151 45.17012 744.378
v 531.3861 69.5 773.049
v 531.3861 69.5 773.049
v 502.7151 45.17012 744.378
v 527.045 69.5 768.7079
v 265 42.29213 888.5
v 499.8371 42.29213 888.5
v 265 69.5 861.2921
v 265 69.5 861.2921
v 499.8371 42.29213 888.5
v 527.0449 69.5 861.2921
v 502.7151 45.17012 744.378
v 265 45.17012 744.378
v 527.045 69.5 768.7079
v 527.045 69.5 768.7079
v 265 45.17012 744.378
v 265 69.5 768.7079
v 546 54.88613 842.3371
v 546 54.88613 787.6628
v 531.3861 69.5 856.9509
v 531.3861 69.5 856.9509
v 546 54.88613 787.6628
v 531.3861 69.5 773.049
v 502.7151 -69.5 744.378
v 265 -69.5 744.378
v 502.7151 -40.5305 744.378
v 502.7151 -40.5305 744.378
v 265 -69.5 744.378
v 419.8346 42.35 744.378
v 419.8346 42.35 744.378
v 265 -69.5 744.378
v 265 42.35 744.378
v 499.8371 -69.5 888.5
v 499.8371 -41.90121 888.5
v 265 -69.5 888.5
v 265 -69.5 888.5
v 499.8371 -41.90121 888.5
v 265 42.35 888.5
v 265 42.35 888.5
v 499.8371 -41.90121 888.5
v 415.5859 42.35 888.5
v 265 42.35 744.378
v 265 -69.5 744.378
v 265 42.35 888.5
v 265 42.35 888.5
v 265 -69.5 744.378
v 265 -69.5 888.5
v 546 -30.00988 787.6629
v 546 -30.00988 842.3371
v 546 -69.5 787.6629
v 546 -69.5 787.6629
v 546 -30.00988 842.3371
v 546 -69.5 842.3371
v 265 -69.5 744.378
v 502.7151 -69.5 744.378
v 265 -69.5 888.5
v 265 -69.5 888.5
v 502.7151 -69.5 744.378
v 499.8371 -69.5 888.5
v 499.8371 -69.5 888.5
v 502.7151 -69.5 744.378
v 546 -69.5 842.3371
v 546 -69.5 842.3371
v 502.7151 -69.5 744.378
v 546 -69.5 787.6629
v 419.8346 42.35 744.378
v 265 42.35 744.378
v 473.6401 42.35 782.4243
v 473.6401 42.35 782.4243
v 265 42.35 744.378
v 473.6401 42.35 847.4495
v 473.6401 42.35 847.4495
v 265 42.35 744.378
v 415.5859 42.35 888.5
v 415.5859 42.35 888.5
v 265 42.35 744.378
v 265 42.35 888.5
v 546 -30.00988 787.6629
v 540.7614 -24.77122 782.4243
v 546 -30.00988 842.3371
v 546 -30.00988 842.3371
v 540.7614 -24.77122 782.4243
v 540.8876 -24.89751 847.4495
v 540.8876 -24.89751 847.4495
v 540.7614 -24.77122 782.4243
v 473.6401 42.35 847.4495
v 473.6401 42.35 847.4495
v 540.7614 -24.77122 782.4243
v 473.6401 42.35 782.4243
v 540.8876 -24.89751 847.4495
v 499.8371 -41.90121 888.5
v 546 -30.00988 842.3371
v 546 -30.00988 842.3371
v 499.8371 -41.90121 888.5
v 546 -69.5 842.3371
v 546 -69.5 842.3371
v 499.8371 -41.90121 888.5
v 499.8371 -69.5 888.5
v 502.7151 -69.5 744.378
v 502.7151 -40.5305 744.378
v 546 -69.5 787.6629
v 546 -69.5 787.6629
v 502.7151 -40.5305 744.378
v 546 -30.00988 787.6629
v 546 -30.00988 787.6629
v 502.7151 -40.5305 744.378
v 540.7614 -24.77122 782.4243
v 415.5859 42.35 888.5
v 499.8371 -41.90121 888.5
v 473.6401 42.35 847.4495
v 473.6401 42.35 847.4495
v 499.8371 -41.90121 888.5
v 540.8876 -24.89751 847.4495
v 540.7614 -24.77122 782.4243
v 502.7151 -40.5305 744.378
v 473.6401 42.35 782.4243
v 473.6401 42.35 782.4243
v 502.7151 -40.5305 744.378
v 419.8346 42.35 744.378
v 344.7711 -65.35101 846.932
v 150.3 -65.351 846.932
v 369 -41.12214 846.932
v 369 -41.12214 846.932
v 150.3 -65.351 846.932
v 369 38.99213 846.932
v 369 38.99213 846.932
v 150.3 -65.351 846.932
v 342.5091 65.483 846.932
v 342.5091 65.483 846.932
v 150.3 -65.351 846.932
v 150.3 65.483 846.932
v 343.8851 -29.69216 901.1
v 343.8851 29.69216 901.1
v 150.3 -29.69216 901.1
v 150.3 -29.69216 901.1
v 343.8851 29.69216 901.1
v 150.3 29.69216 901.1
v 150.3 -65.351 846.932
v 150.3 -65.351 865.4412
v 150.3 65.483 846.932
v 150.3 65.483 846.932
v 150.3 -65.351 865.4412
v 150.3 65.483 865.3091
v 150.3 65.483 865.3091
v 150.3 -65.351 865.4412
v 150.3 29.69216 901.1
v 150.3 29.69216 901.1
v 150.3 -65.351 865.4412
v 150.3 -29.69216 901.1
v 369 38.99213 875.9851
v 369 -41.12214 875.9851
v 369 38.99213 846.932
v 369 38.99213 846.932
v 369 -41.12214 875.9851
v 369 -41.12214 846.932
v 150.3 -65.351 846.932
v 344.7711 -65.35101 846.932
v 150.3 -65.351 865.4412
v 150.3 -65.351 865.4412
v 344.7711 -65.35101 846.932
v 344.7711 -65.35101 865.4412
v 150.3 65.483 865.3091
v 342.5091 65.483 865.3091
v 150.3 65.483 846.932
v 150.3 65.483 846.932
v 342.5091 65.483 865.3091
v 342.5091 65.483 846.932
v 343.8851 29.69216 901.1
v 361.0926 46.89959 883.8925
v 150.3 29.69216 901.1
v 150.3 29.69216 901.1
v 361.0926 46.89959 883.8925
v 150.3 65.483 865.3091
v 150.3 65.483 865.3091
v 361.0926 46.89959 883.8925
v 342.5091 65.483 865.3091
v 362.1576 -47.96459 882.8276
v 343.8851 -29.69216 901.1
v 344.7711 -65.35101 865.4412
v 344.7711 -65.35101 865.4412
v 343.8851 -29.69216 901.1
v 150.3 -65.351 865.4412
v 150.3 -65.351 865.4412
v 343.8851 -29.69216 901.1
v 150.3 -29.69216 901.1
v 369 38.99213 875.9851
v 369 38.99213 846.932
v 361.0926 46.89959 883.8925
v 361.0926 46.89959 883.8925
v 369 38.99213 846.932
v 342.5091 65.483 865.3091
v 342.5091 65.483 865.3091
v 369 38.99213 846.932
v 342.5091 65.483 846.932
v 361.0926 46.89959 883.8925
v 343.8851 29.69216 901.1
v 369 38.99213 875.9851
v 369 38.99213 875.9851
v 343.8851 29.69216 901.1
v 369 -41.12214 875.9851
v 369 -41.12214 875.9851
v 343.8851 29.69216 901.1
v 362.1576 -47.96459 882.8276
v 362.1576 -47.96459 882.8276
v 343.8851 29.69216 901.1
v 343.8851 -29.69216 901.1
v 344.7711 -65.35101 865.4412
v 344.7711 -65.35101 846.932
v 362.1576 -47.96459 882.8276
v 362.1576 -47.96459 882.8276
v 344.7711 -65.35101 846.932
v 369 -41.12214 875.9851
v 369 -41.12214 875.9851
v 344.7711 -65.35101 846.932
v 369 -41.12214 846.932
v 150.3 -36.39516 735.603
v 150.3 36.39516 735.603
v 319.659 -36.39516 735.603
v 319.659 -36.39516 735.603
v 150.3 36.39516 735.603
v 319.659 36.39516 735.603
v 276.4431 -48.62112 879.946
v 276.4431 48.78117 879.946
v 150.3 -48.62112 879.946
v 150.3 -48.62112 879.946
v 276.4431 48.78117 879.946
v 150.3 48.78117 879.946
v 150.3 -79.479 778.6869
v 150.3 -79.479 849.0881
v 150.3 -36.39516 735.603
v 150.3 -36.39516 735.603
v 150.3 -79.479 849.0881
v 150.3 36.39516 735.603
v 150.3 36.39516 735.603
v 150.3 -79.479 849.0881
v 150.3 79.015 778.2228
v 150.3 79.015 778.2228
v 150.3 -79.479 849.0881
v 150.3 79.015 849.7122
v 150.3 79.015 849.7122
v 150.3 -79.479 849.0881
v 150.3 48.78117 879.946
v 150.3 48.78117 879.946
v 150.3 -79.479 849.0881
v 150.3 -48.62112 879.946
v 319.659 -36.39516 735.603
v 319.659 36.39516 735.603
v 319.659 -79.479 778.6869
v 319.659 -79.479 778.6869
v 319.659 36.39516 735.603
v 319.659 -79.479 836.7301
v 319.659 -79.479 836.7301
v 319.659 36.39516 735.603
v 319.659 79.015 836.7301
v 319.659 79.015 836.7301
v 319.659 36.39516 735.603
v 319.659 79.015 778.2228
v 150.3 -79.479 849.0881
v 150.3 -79.479 778.6869
v 307.301 -79.479 849.0881
v 307.301 -79.479 849.0881
v 150.3 -79.479 778.6869
v 319.659 -79.479 836.7301
v 319.659 -79.479 836.7301
v 150.3 -79.479 778.6869
v 319.659 -79.479 778.6869
v 150.3 79.015 778.2228
v 150.3 79.015 849.7122
v 319.659 79.015 778.2228
v 319.659 79.015 778.2228
v 150.3 79.015 849.7122
v 319.659 79.015 836.7301
v 319.659 79.015 836.7301
v 150.3 79.015 849.7122
v 306.6769 79.015 849.7122
v 276.4431 -48.62112 879.946
v 307.301 -79.479 849.0881
v 276.4431 48.78117 879.946
v 276.4431 48.78117 879.946
v 307.301 -79.479 849.0881
v 306.6769 79.015 849.7122
v 306.6769 79.015 849.7122
v 307.301 -79.479 849.0881
v 319.659 79.015 836.7301
v 319.659 79.015 836.7301
v 307.301 -79.479 849.0881
v 319.659 -79.479 836.7301
v 150.3 -79.479 778.6869
v 150.3 -36.39516 735.603
v 319.659 -79.479 778.6869
v 319.659 -79.479 778.6869
v 150.3 -36.39516 735.603
v 319.659 -36.39516 735.603
v 319.659 36.39516 735.603
v 150.3 36.39516 735.603
v 319.659 79.015 778.2228
v 319.659 79.015 778.2228
v 150.3 36.39516 735.603
v 150.3 79.015 778.2228
v 307.301 -79.479 849.0881
v 276.4431 -48.62112 879.946
v 150.3 -79.479 849.0881
v 150.3 -79.479 849.0881
v 276.4431 -48.62112 879.946
v 150.3 -48.62112 879.946
v 150.3 48.78117 879.946
v 276.4431 48.78117 879.946
v 150.3 79.015 849.7122
v 150.3 79.015 849.7122
v 276.4431 48.78117 879.946
v 306.6769 79.015 849.7122

vn 0 0 -0.9999999
vn 0 0 -0.9999999
vn 0 0 -0.9999999
vn 0 0 -0.9999999
vn 0 0 -0.9999999
vn 0 0 -0.9999999
vn 0 0 1
vn 0 0 1
vn 0 0 1
vn 0 0 1
vn 0 0 1
vn 0 0 1
vn -1 0 0
vn -1 0 0
vn -1 0 0
vn -1 0 0
vn -1 0 0
vn -1 0 0
vn -1 0 0
vn -1 0 0
vn -1 0 0
vn -1 0 0
vn -1 0 0
vn -1 0 0
vn 1 0 0
vn 1 0 0
vn 1 0 0
vn 1 0 0
vn 1 0 0
vn 1 0 0
vn 0 -1 0
vn 0 -1 0
vn 0 -1 0
vn 0 -1 0
vn 0 -1 0
vn 0 -1 0
vn 0 -1 0
vn 0 -1 0
vn 0 -1 0
vn 0 -1 0
vn 0 -1 0
vn 0 -1 0
vn 0 0.9999999 0
vn 0 0.9999999 0
vn 0 0.9999999 0
vn 0 1 0
vn 0 1 0
vn 0 1 0
vn 0 1 0
vn 0 1 0
vn 0 1 0
vn 0 1 0
vn 0 1 0
vn 0 1 0
vn 0.7071075 0 0.707106
vn 0.7071075 0 0.707106
vn 0.7071075 0 0.707106
vn 0.7071068 8.341922E-07 0.7071068
vn 0.7071068 8.341922E-07 0.7071068
vn 0.7071068 8.341922E-07 0.7071068
vn 0.7071062 1.652689E-06 0.7071074
vn 0.7071062 1.652689E-06 0.7071074
vn 0.7071062 1.652689E-06 0.7071074
vn 0.7071068 0 0.7071068
vn 0.7071068 0 0.7071068
vn 0.7071068 0 0.7071068
vn 0.7071067 0 -0.7071067
vn 0.7071067 0 -0.7071067
vn 0.7071067 0 -0.7071067
vn 0.7071068 0 -0.7071068
vn 0.7071068 0 -0.7071068
vn 0.7071068 0 -0.7071068
vn 0.7071065 2.395992E-06 -0.7071071
vn 0.7071065 2.395992E-06 -0.7071071
vn 0.7071065 2.395992E-06 -0.7071071
vn 0.7071068 1.736648E-06 -0.7071068
vn 0.7071068 1.736648E-06 -0.7071068
vn 0.7071068 1.736648E-06 -0.7071068
vn 0 0.707107 0.7071065
vn 0 0.707107 0.7071065
vn 0 0.707107 0.7071065
vn 0 0.707107 0.7071065
vn 0 0.707107 0.7071065
vn 0 0.707107 0.7071065
vn 0 0.707107 -0.7071065
vn 0 0.707107 -0.7071065
vn 0 0.707107 -0.7071065
vn 0 0.707107 -0.7071065
vn 0 0.707107 -0.7071065
vn 0 0.707107 -0.7071065
vn 0.7071064 0.7071072 0
vn 0.7071064 0.7071072 0
vn 0.7071064 0.7071072 0
vn 0.7071064 0.7071072 0
vn 0.7071064 0.7071072 0
vn 0.7071064 0.7071072 0
vn 0 0 -1
vn 0 0 -1
vn 0 0 -1
vn 0 0 -1
vn 0 0 -1
vn 0 0 -1
vn 0 0 -1
vn 0 0 -1
vn 0 0 -1
vn 0 0 1
vn 0 0 1
vn 0 0 1
vn 0 0 1
vn 0 0 1
vn 0 0 1
vn 0 0 1
vn 0 0 1
vn 0 0 1
vn -1 0 0
vn -1 0 0
vn -1 0 0
vn -1 0 0
vn -1 0 0
vn -1 0 0
vn 1 0 0
vn 1 0 0
vn 1 0 0
vn 1 0 0
vn 1 0 0
vn 1 0 0
vn 0 -0.9999999 0
vn 0 -0.9999999 0
vn 0 -0.9999999 0
vn 0 -1 0
vn 0 -1 0
vn 0 -1 0
vn 0 -1 0
vn 0 -1 0
vn 0 -1 0
vn 0 -1 0
vn 0 -1 0
vn 0 -1 0
vn 0 1 0
vn 0 1 0
vn 0 1 0
vn 0 1 0
vn 0 1 0
vn 0 1 0
vn 0 0.9999999 0
vn 0 0.9999999 0
vn 0 0.9999999 0
vn 0 0.9999999 0
vn 0 0.9999999 0
vn 0 0.9999999 0
vn 0.7071075 0.707106 0
vn 0.7071075 0.707106 0
vn 0.7071075 0.707106 0
vn 0.7071069 0.7071065 1.030014E-07
vn 0.7071069 0.7071065 1.030014E-07
vn 0.7071069 0.7071065 1.030014E-07
vn 0.7071068 0.7071067 1.579163E-07
vn 0.7071068 0.7071067 1.579163E-07
vn 0.7071068 0.7071067 1.579163E-07
vn 0.7071068 0.7071068 0
vn 0.7071068 0.7071068 0
vn 0.7071068 0.7071068 0
vn 0.7071068 0 0.7071068
vn 0.7071068 0 0.7071068
vn 0.7071068 0 0.7071068
vn 0.7071068 0 0.7071068
vn 0.7071068 0 0.7071068
vn 0.7071068 0 0.7071068
vn 0.7071068 0 0.7071068
vn 0.7071068 0 0.7071068
vn 0.7071068 0 0.7071068
vn 0.7071068 0 -0.7071068
vn 0.7071068 0 -0.7071068
vn 0.7071068 0 -0.7071068
vn 0.7071068 0 -0.7071068
vn 0.7071068 0 -0.7071068
vn 0.7071068 0 -0.7071068
vn 0.7071068 0 -0.7071068
vn 0.7071068 0 -0.7071068
vn 0.7071068 0 -0.7071068
vn 0.4999999 0.4999999 0.707107
vn 0.4999999 0.4999999 0.707107
vn 0.4999999 0.4999999 0.707107
vn 0.5000001 0.4999999 0.7071069
vn 0.5000001 0.4999999 0.7071069
vn 0.5000001 0.4999999 0.7071069
vn 0.5 0.5 -0.7071068
vn 0.5 0.5 -0.7071068
vn 0.5 0.5 -0.7071068
vn 0.4999998 0.5 -0.7071069
vn 0.4999998 0.5 -0.7071069
vn 0.4999998 0.5 -0.7071069
vn 0 0 -1
vn 0 0 -1
vn 0 0 -1
vn 0 0 -1
vn 0 0 -1
vn 0 0 -1
vn 0 0 -1
vn 0 0 -1
vn 0 0 -1
vn 0 0 -1
vn 0 0 -1
vn 0 0 -1
vn 0 0 1
vn 0 0 1
vn 0 0 1
vn 0 0 1
vn 0 0 1
vn 0 0 1
vn -0.9999999 0 0
vn -0.9999999 0 0
vn -0.9999999 0 0
vn -1 0 0
vn -1 0 0
vn -1 0 0
vn -1 0 0
vn -1 0 0
vn -1 0 0
vn -1 0 0
vn -1 0 0
vn -1 0 0
vn 1 0 0
vn 1 0 0
vn 1 0 0
vn 1 0 0
vn 1 0 0
vn 1 0 0
vn -3.92315E-08 -1 0
vn -3.92315E-08 -1 0
vn -3.92315E-08 -1 0
vn -3.92315E-08 -1 0
vn -3.92315E-08 -1 0
vn -3.92315E-08 -1 0
vn 0 1 0
vn 0 1 0
vn 0 1 0
vn 0 1 0
vn 0 1 0
vn 0 1 0
vn 0 0.7071074 0.7071062
vn 0 0.7071074 0.7071062
vn 0 0.7071074 0.7071062
vn 1.086905E-07 0.7071067 0.7071069
vn 1.086905E-07 0.7071067 0.7071069
vn 1.086905E-07 0.7071067 0.7071069
vn 0 0.7071061 0.7071075
vn 0 0.7071061 0.7071075
vn 0 0.7071061 0.7071075
vn -5.433991E-07 -0.7071065 0.7071072
vn -5.433991E-07 -0.7071065 0.7071072
vn -5.433991E-07 -0.7071065 0.7071072
vn -2.774085E-08 -0.7071065 0.7071072
vn -2.774085E-08 -0.7071065 0.7071072
vn -2.774085E-08 -0.7071065 0.7071072
vn 0 -0.7071065 0.707107
vn 0 -0.7071065 0.707107
vn 0 -0.7071065 0.707107
vn 0.7071074 0.7071061 0
vn 0.7071074 0.7071061 0
vn 0.7071074 0.7071061 0
vn 0.7071065 0.707107 -3.88208E-07
vn 0.7071065 0.707107 -3.88208E-07
vn 0.7071065 0.707107 -3.88208E-07
vn 0.7071067 0.7071069 0
vn 0.7071067 0.7071069 0
vn 0.7071067 0.7071069 0
vn 0.7071065 1.982408E-06 0.7071072
vn 0.7071065 1.982408E-06 0.7071072
vn 0.7071065 1.982408E-06 0.7071072
vn 0.7071068 0 0.7071068
vn 0.7071068 0 0.7071068
vn 0.7071068 0 0.7071068
vn 0.707108 8.301068E-07 0.7071057
vn 0.707108 8.301068E-07 0.7071057
vn 0.707108 8.301068E-07 0.7071057
vn 0.7071062 0 0.7071074
vn 0.7071062 0 0.7071074
vn 0.7071062 0 0.7071074
vn 0.7071069 -0.7071067 0
vn 0.7071069 -0.7071067 0
vn 0.7071069 -0.7071067 0
vn 0.7071074 -0.7071062 -4.735141E-07
vn 0.7071074 -0.7071062 -4.735141E-07
vn 0.7071074 -0.7071062 -4.735141E-07
vn 0.707107 -0.7071065 0
vn 0.707107 -0.7071065 0
vn 0.707107 -0.7071065 0
vn 0 0 -0.9999999
vn 0 0 -0.9999999
vn 0 0 -0.9999999
vn 0 0 -0.9999999
vn 0 0 -0.9999999
vn 0 0 -0.9999999
vn 0 0 1
vn 0 0 1
vn 0 0 1
vn 0 0 1
vn 0 0 1
vn 0 0 1
vn -1 0 0
vn -1 0 0
vn -1 0 0
vn -1 0 0
vn -1 0 0
vn -1 0 0
vn -1 0 0
vn -1 0 0
vn -1 0 0
vn -1 0 0
vn -1 0 0
vn -1 0 0
vn -1 0 0
vn -1 0 0
vn -1 0 0
vn -1 0 0
vn -1 0 0
vn -1 0 0
vn 1 0 0
vn 1 0 0
vn 1 0 0
vn 1 0 0
vn 1 0 0
vn 1 0 0
vn 1 0 0
vn 1 0 0
vn 1 0 0
vn 0.9999999 0 0
vn 0.9999999 0 0
vn 0.9999999 0 0
vn 0 -1 0
vn 0 -1 0
vn 0 -1 0
vn 0 -1 0
vn 0 -1 0
vn 0 -1 0
vn 0 -1 0
vn 0 -1 0
vn 0 -1 0
vn 0 1 0
vn 0 1 0
vn 0 1 0
vn 0 1 0
vn 0 1 0
vn 0 1 0
vn 0 0.9999999 0
vn 0 0.9999999 0
vn 0 0.9999999 0
vn 0.7071071 0 0.7071064
vn 0.7071071 0 0.7071064
vn 0.7071071 0 0.7071064
vn 0.7071069 -1.3569E-07 0.7071067
vn 0.7071069 -1.3569E-07 0.7071067
vn 0.7071069 -1.3569E-07 0.7071067
vn 0.7071068 -1.363397E-07 0.7071068
vn 0.7071068 -1.363397E-07 0.7071068
vn 0.7071068 -1.363397E-07 0.7071068
vn 0.7071059 0 0.7071077
vn 0.7071059 0 0.7071077
vn 0.7071059 0 0.7071077
vn 0 -0.7071069 -0.7071065
vn 0 -0.7071069 -0.7071065
vn 0 -0.7071069 -0.7071065
vn 0 -0.7071069 -0.7071065
vn 0 -0.7071069 -0.7071065
vn 0 -0.7071069 -0.7071065
vn 0 0.7071065 -0.707107
vn 0 0.7071065 -0.707107
vn 0 0.7071065 -0.707107
vn 0 0.7071065 -0.707107
vn 0 0.7071065 -0.707107
vn 0 0.7071065 -0.707107
vn 0 -0.7071071 0.7071065
vn 0 -0.7071071 0.7071065
vn 0 -0.7071071 0.7071065
vn 0 -0.7071071 0.7071065
vn 0 -0.7071071 0.7071065
vn 0 -0.7071071 0.7071065
vn 0 0.7071068 0.7071068
vn 0 0.7071068 0.7071068
vn 0 0.7071068 0.7071068
vn 0 0.7071068 0.7071068
vn 0 0.7071068 0.7071068
vn 0 0.7071068 0.7071068



f 1//1 2//2 3//3
f 4//4 5//5 6//6
f 7//7 8//8 9//9
f 10//10 11//11 12//12
f 13//13 14//14 15//15
f 16//16 17//17 18//18
f 19//19 20//20 21//21
f 22//22 23//23 24//24
f 25//25 26//26 27//27
f 28//28 29//29 30//30
f 31//31 32//32 33//33
f 34//34 35//35 36//36
f 37//37 38//38 39//39
f 40//40 41//41 42//42
f 43//43 44//44 45//45
f 46//46 47//47 48//48
f 49//49 50//50 51//51
f 52//52 53//53 54//54
f 55//55 56//56 57//57
f 58//58 59//59 60//60
f 61//61 62//62 63//63
f 64//64 65//65 66//66
f 67//67 68//68 69//69
f 70//70 71//71 72//72
f 73//73 74//74 75//75
f 76//76 77//77 78//78
f 79//79 80//80 81//81
f 82//82 83//83 84//84
f 85//85 86//86 87//87
f 88//88 89//89 90//90
f 91//91 92//92 93//93
f 94//94 95//95 96//96
f 97//97 98//98 99//99
f 100//100 101//101 102//102
f 103//103 104//104 105//105
f 106//106 107//107 108//108
f 109//109 110//110 111//111
f 112//112 113//113 114//114
f 115//115 116//116 117//117
f 118//118 119//119 120//120
f 121//121 122//122 123//123
f 124//124 125//125 126//126
f 127//127 128//128 129//129
f 130//130 131//131 132//132
f 133//133 134//134 135//135
f 136//136 137//137 138//138
f 139//139 140//140 141//141
f 142//142 143//143 144//144
f 145//145 146//146 147//147
f 148//148 149//149 150//150
f 151//151 152//152 153//153
f 154//154 155//155 156//156
f 157//157 158//158 159//159
f 160//160 161//161 162//162
f 163//163 164//164 165//165
f 166//166 167//167 168//168
f 169//169 170//170 171//171
f 172//172 173//173 174//174
f 175//175 176//176 177//177
f 178//178 179//179 180//180
f 181//181 182//182 183//183
f 184//184 185//185 186//186
f 187//187 188//188 189//189
f 190//190 191//191 192//192
f 193//193 194//194 195//195
f 196//196 197//197 198//198
f 199//199 200//200 201//201
f 202//202 203//203 204//204
f 205//205 206//206 207//207
f 208//208 209//209 210//210
f 211//211 212//212 213//213
f 214//214 215//215 216//216
f 217//217 218//218 219//219
f 220//220 221//221 222//222
f 223//223 224//224 225//225
f 226//226 227//227 228//228
f 229//229 230//230 231//231
f 232//232 233//233 234//234
f 235//235 236//236 237//237
f 238//238 239//239 240//240
f 241//241 242//242 243//243
f 244//244 245//245 246//246
f 247//247 248//248 249//249
f 250//250 251//251 252//252
f 253//253 254//254 255//255
f 256//256 257//257 258//258
f 259//259 260//260 261//261
f 262//262 263//263 264//264
f 265//265 266//266 267//267
f 268//268 269//269 270//270
f 271//271 272//272 273//273
f 274//274 275//275 276//276
f 277//277 278//278 279//279
f 280//280 281//281 282//282
f 283//283 284//284 285//285
f 286//286 287//287 288//288
f 289//289 290//290 291//291
f 292//292 293//293 294//294
f 295//295 296//296 297//297
f 298//298 299//299 300//300
f 301//301 302//302 303//303
f 304//304 305//305 306//306
f 307//307 308//308 309//309
f 310//310 311//311 312//312
f 313//313 314//314 315//315
f 316//316 317//317 318//318
f 319//319 320//320 321//321
f 322//322 323//323 324//324
f 325//325 326//326 327//327
f 328//328 329//329 330//330
f 331//331 332//332 333//333
f 334//334 335//335 336//336
f 337//337 338//338 339//339
f 340//340 341//341 342//342
f 343//343 344//344 345//345
f 346//346 347//347 348//348
f 349//349 350//350 351//351
f 352//352 353//353 354//354
f 355//355 356//356 357//357
f 358//358 359//359 360//360
f 361//361 362//362 363//363
f 364//364 365//365 366//366
f 367//367 368//368 369//369
f 370//370 371//371 372//372
f 373//373 374//374 375//375
f 376//376 377//377 378//378
f 379//379 380//380 381//381
f 382//382 383//383 384//384
