mtllib Collision_5_1.mtl
usemtl 
g 

v 425.173 -39.15 734.3
v 425.173 19.04306 734.3
v 534.803 -39.15 734.3
v 534.803 -39.15 734.3
v 425.173 19.04306 734.3
v 534.803 19.15215 734.3
v 534.803 19.15215 734.3
v 425.173 19.04306 734.3
v 509.9551 44 734.3
v 509.9551 44 734.3
v 425.173 19.04306 734.3
v 450.1299 44 734.3
v 502.7111 -39.15 869.827
v 502.7111 19.03632 869.827
v 457.2909 -39.15 869.827
v 457.2909 -39.15 869.827
v 502.7111 19.03632 869.827
v 457.2909 44 869.827
v 457.2909 44 869.827
v 502.7111 19.03632 869.827
v 467.4071 44 869.827
v 425.173 -39.15 837.7091
v 425.173 19.04306 837.7091
v 425.173 -39.15 734.3
v 425.173 -39.15 734.3
v 425.173 19.04306 837.7091
v 425.173 19.04306 734.3
v 534.803 -39.15 734.3
v 534.803 19.15215 734.3
v 534.803 -39.15 837.735
v 534.803 -39.15 837.735
v 534.803 19.15215 734.3
v 534.803 19.03632 837.735
v 534.803 19.03632 837.735
v 534.803 19.15215 734.3
v 534.803 19.15215 837.5713
v 425.173 -39.15 837.7091
v 425.173 -39.15 734.3
v 457.2909 -39.15 869.827
v 457.2909 -39.15 869.827
v 425.173 -39.15 734.3
v 502.7111 -39.15 869.827
v 502.7111 -39.15 869.827
v 425.173 -39.15 734.3
v 534.803 -39.15 837.735
v 534.803 -39.15 837.735
v 425.173 -39.15 734.3
v 534.803 -39.15 734.3
v 450.1299 44 734.3
v 450.1299 44 862.666
v 509.9551 44 734.3
v 509.9551 44 734.3
v 450.1299 44 862.666
v 509.9551 44 827.2789
v 509.9551 44 827.2789
v 450.1299 44 862.666
v 467.4071 44 869.827
v 467.4071 44 869.827
v 450.1299 44 862.666
v 457.2909 44 869.827
v 425.173 -39.15 837.7091
v 457.2909 -39.15 869.827
v 425.173 19.04306 837.7091
v 425.173 19.04306 837.7091
v 457.2909 -39.15 869.827
v 450.1299 44 862.666
v 450.1299 44 862.666
v 457.2909 -39.15 869.827
v 457.2909 44 869.827
v 502.7111 19.03632 869.827
v 502.7111 -39.15 869.827
v 534.803 19.03632 837.735
v 534.803 19.03632 837.735
v 502.7111 -39.15 869.827
v 534.803 -39.15 837.735
v 467.4071 44 869.827
v 502.7111 19.03632 869.827
v 509.9551 44 827.2789
v 509.9551 44 827.2789
v 502.7111 19.03632 869.827
v 534.803 19.15215 837.5713
v 534.803 19.15215 837.5713
v 502.7111 19.03632 869.827
v 534.803 19.03632 837.735
v 450.1299 44 734.3
v 425.173 19.04306 734.3
v 450.1299 44 862.666
v 450.1299 44 862.666
v 425.173 19.04306 734.3
v 425.173 19.04306 837.7091
v 534.803 19.15215 837.5713
v 534.803 19.15215 734.3
v 509.9551 44 827.2789
v 509.9551 44 827.2789
v 534.803 19.15215 734.3
v 509.9551 44 734.3

vn 0 0 -0.9999999
vn 0 0 -0.9999999
vn 0 0 -0.9999999
vn 0 0 -1
vn 0 0 -1
vn 0 0 -1
vn 0 0 -1
vn 0 0 -1
vn 0 0 -1
vn 0 0 -1
vn 0 0 -1
vn 0 0 -1
vn 0 0 1
vn 0 0 1
vn 0 0 1
vn 0 0 1
vn 0 0 1
vn 0 0 1
vn 0 0 1
vn 0 0 1
vn 0 0 1
vn -1 0 0
vn -1 0 0
vn -1 0 0
vn -1 0 0
vn -1 0 0
vn -1 0 0
vn 1 0 0
vn 1 0 0
vn 1 0 0
vn 1 0 0
vn 1 0 0
vn 1 0 0
vn 1 0 0
vn 1 0 0
vn 1 0 0
vn 0 -1 0
vn 0 -1 0
vn 0 -1 0
vn 0 -1 0
vn 0 -1 0
vn 0 -1 0
vn 0 -1 0
vn 0 -1 0
vn 0 -1 0
vn 0 -1 0
vn 0 -1 0
vn 0 -1 0
vn 0 1 0
vn 0 1 0
vn 0 1 0
vn 0 1 0
vn 0 1 0
vn 0 1 0
vn 0 1 0
vn 0 1 0
vn 0 1 0
vn 0 1 0
vn 0 1 0
vn 0 1 0
vn -0.7071068 0 0.7071068
vn -0.7071068 0 0.7071068
vn -0.7071068 0 0.7071068
vn -0.7071065 3.063752E-07 0.7071071
vn -0.7071065 3.063752E-07 0.7071071
vn -0.7071065 3.063752E-07 0.7071071
vn -0.7071083 0 0.7071053
vn -0.7071083 0 0.7071053
vn -0.7071083 0 0.7071053
vn 0.7071071 0 0.7071065
vn 0.7071071 0 0.7071065
vn 0.7071071 0 0.7071065
vn 0.7071071 0 0.7071065
vn 0.7071071 0 0.7071065
vn 0.7071071 0 0.7071065
vn 0.4999999 0.7071068 0.4999999
vn 0.4999999 0.7071068 0.4999999
vn 0.4999999 0.7071068 0.4999999
vn 0.4999997 0.7071071 0.5
vn 0.4999997 0.7071071 0.5
vn 0.4999997 0.7071071 0.5
vn 0.5000812 0.7069923 0.5000807
vn 0.5000812 0.7069923 0.5000807
vn 0.5000812 0.7069923 0.5000807
vn -0.7071068 0.7071068 0
vn -0.7071068 0.7071068 0
vn -0.7071068 0.7071068 0
vn -0.7071068 0.7071068 0
vn -0.7071068 0.7071068 0
vn -0.7071068 0.7071068 0
vn 0.7071069 0.7071066 0
vn 0.7071069 0.7071066 0
vn 0.7071069 0.7071066 0
vn 0.7071069 0.7071066 0
vn 0.7071069 0.7071066 0
vn 0.7071069 0.7071066 0



f 1//1 2//2 3//3
f 4//4 5//5 6//6
f 7//7 8//8 9//9
f 10//10 11//11 12//12
f 13//13 14//14 15//15
f 16//16 17//17 18//18
f 19//19 20//20 21//21
f 22//22 23//23 24//24
f 25//25 26//26 27//27
f 28//28 29//29 30//30
f 31//31 32//32 33//33
f 34//34 35//35 36//36
f 37//37 38//38 39//39
f 40//40 41//41 42//42
f 43//43 44//44 45//45
f 46//46 47//47 48//48
f 49//49 50//50 51//51
f 52//52 53//53 54//54
f 55//55 56//56 57//57
f 58//58 59//59 60//60
f 61//61 62//62 63//63
f 64//64 65//65 66//66
f 67//67 68//68 69//69
f 70//70 71//71 72//72
f 73//73 74//74 75//75
f 76//76 77//77 78//78
f 79//79 80//80 81//81
f 82//82 83//83 84//84
f 85//85 86//86 87//87
f 88//88 89//89 90//90
f 91//91 92//92 93//93
f 94//94 95//95 96//96
