mtllib Collision_0_1.mtl
usemtl 
g 

v -167.5 51.57107 -5
v -138.7904 80.28068 -5
v -167.5 -51.57107 -5
v -167.5 -51.57107 -5
v -138.7904 80.28068 -5
v -138.7904 -80.28068 -5
v -138.7904 -80.28068 -5
v -138.7904 80.28068 -5
v -79.11267 -105 -5
v -79.11267 -105 -5
v -138.7904 80.28068 -5
v 86.35507 -105 -5
v 86.35507 -105 -5
v -138.7904 80.28068 -5
v 105 -86.35507 -5
v 105 -86.35507 -5
v -138.7904 80.28068 -5
v 105 104 -5
v 105 104 -5
v -138.7904 80.28068 -5
v -81.52688 104 -5
v 86.35507 -105 31.615
v 105 -86.35507 31.615
v -79.11267 -105 31.615
v -79.11267 -105 31.615
v 105 -86.35507 31.615
v -138.7904 -80.28068 31.615
v -138.7904 -80.28068 31.615
v 105 -86.35507 31.615
v -167.5 -51.57107 31.615
v -167.5 -51.57107 31.615
v 105 -86.35507 31.615
v -167.5 51.57107 31.615
v -167.5 51.57107 31.615
v 105 -86.35507 31.615
v -138.7904 80.28068 31.615
v -138.7904 80.28068 31.615
v 105 -86.35507 31.615
v -81.52688 104 31.615
v -81.52688 104 31.615
v 105 -86.35507 31.615
v 105 104 31.615
v -167.5 51.57107 -5
v -167.5 -51.57107 -5
v -167.5 51.57107 31.615
v -167.5 51.57107 31.615
v -167.5 -51.57107 -5
v -167.5 -51.57107 31.615
v 105 -86.35507 31.615
v 105 -86.35507 -5
v 105 104 31.615
v 105 104 31.615
v 105 -86.35507 -5
v 105 104 -5
v -79.11267 -105 -5
v 86.35507 -105 -5
v -79.11267 -105 31.615
v -79.11267 -105 31.615
v 86.35507 -105 -5
v 86.35507 -105 31.615
v 105 104 -5
v -81.52688 104 -5
v 105 104 31.615
v 105 104 31.615
v -81.52688 104 -5
v -81.52688 104 31.615
v -167.5 -51.57107 -5
v -138.7904 -80.28068 -5
v -167.5 -51.57107 31.615
v -167.5 -51.57107 31.615
v -138.7904 -80.28068 -5
v -138.7904 -80.28068 31.615
v -138.7904 80.28068 -5
v -167.5 51.57107 -5
v -138.7904 80.28068 31.615
v -138.7904 80.28068 31.615
v -167.5 51.57107 -5
v -167.5 51.57107 31.615
v -138.7904 -80.28068 31.615
v -138.7904 -80.28068 -5
v -79.11267 -105 31.615
v -79.11267 -105 31.615
v -138.7904 -80.28068 -5
v -79.11267 -105 -5
v 86.35507 -105 31.615
v 86.35507 -105 -5
v 105 -86.35507 31.615
v 105 -86.35507 31.615
v 86.35507 -105 -5
v 105 -86.35507 -5
v -81.52688 104 -5
v -138.7904 80.28068 -5
v -81.52688 104 31.615
v -81.52688 104 31.615
v -138.7904 80.28068 -5
v -138.7904 80.28068 31.615
v -115 67.07107 12.294
v -112.8323 69.23879 12.294
v -115 -67.07107 12.294
v -115 -67.07107 12.294
v -112.8323 69.23879 12.294
v -78.07107 -104 12.294
v -78.07107 -104 12.294
v -112.8323 69.23879 12.294
v 43.91106 -104 12.294
v 43.91106 -104 12.294
v -112.8323 69.23879 12.294
v 103.085 -44.82607 12.294
v 103.085 -44.82607 12.294
v -112.8323 69.23879 12.294
v 103.085 44.82607 12.294
v 103.085 44.82607 12.294
v -112.8323 69.23879 12.294
v 43.91106 104 12.294
v 43.91106 104 12.294
v -112.8323 69.23879 12.294
v -28.9113 104 12.294
v 103.085 -44.82607 165.5
v 103.085 44.82607 165.5
v 43.91106 -104 165.5
v 43.91106 -104 165.5
v 103.085 44.82607 165.5
v -78.07107 -104 165.5
v -78.07107 -104 165.5
v 103.085 44.82607 165.5
v -115 -67.07107 165.5
v -115 -67.07107 165.5
v 103.085 44.82607 165.5
v -115 67.07107 165.5
v -115 67.07107 165.5
v 103.085 44.82607 165.5
v -112.8323 69.23879 165.5
v -112.8323 69.23879 165.5
v 103.085 44.82607 165.5
v -28.9113 104 165.5
v -28.9113 104 165.5
v 103.085 44.82607 165.5
v 43.91106 104 165.5
v -115 67.07107 12.294
v -115 -67.07107 12.294
v -115 67.07107 165.5
v -115 67.07107 165.5
v -115 -67.07107 12.294
v -115 -67.07107 165.5
v 103.085 -44.82607 12.294
v 103.085 44.82607 12.294
v 103.085 -44.82607 165.5
v 103.085 -44.82607 165.5
v 103.085 44.82607 12.294
v 103.085 44.82607 165.5
v -78.07107 -104 12.294
v 43.91106 -104 12.294
v -78.07107 -104 165.5
v -78.07107 -104 165.5
v 43.91106 -104 12.294
v 43.91106 -104 165.5
v 43.91106 104 12.294
v -28.9113 104 12.294
v 43.91106 104 165.5
v 43.91106 104 165.5
v -28.9113 104 12.294
v -28.9113 104 165.5
v 103.085 44.82607 165.5
v 103.085 44.82607 12.294
v 43.91106 104 165.5
v 43.91106 104 165.5
v 103.085 44.82607 12.294
v 43.91106 104 12.294
v 43.91106 -104 165.5
v 43.91106 -104 12.294
v 103.085 -44.82607 165.5
v 103.085 -44.82607 165.5
v 43.91106 -104 12.294
v 103.085 -44.82607 12.294
v -112.8323 69.23879 12.294
v -115 67.07107 12.294
v -112.8323 69.23879 165.5
v -112.8323 69.23879 165.5
v -115 67.07107 12.294
v -115 67.07107 165.5
v -115 -67.07107 165.5
v -115 -67.07107 12.294
v -78.07107 -104 165.5
v -78.07107 -104 165.5
v -115 -67.07107 12.294
v -78.07107 -104 12.294
v -28.9113 104 12.294
v -112.8323 69.23879 12.294
v -28.9113 104 165.5
v -28.9113 104 165.5
v -112.8323 69.23879 12.294
v -112.8323 69.23879 165.5
v -150.5111 -71.075 5.785999
v -157.3571 -64.229 5.785999
v -105 -71.075 5.785999
v -105 -71.075 5.785999
v -157.3571 -64.229 5.785999
v -105 71.075 5.785999
v -105 71.075 5.785999
v -157.3571 -64.229 5.785999
v -157.3571 71.075 5.785999
v -150.5111 -71.075 165
v -105 -71.075 165
v -162.2211 -59.36499 165
v -162.2211 -59.36499 165
v -105 -71.075 165
v -162.2211 41.52997 165
v -162.2211 41.52997 165
v -105 -71.075 165
v -120.4381 71.075 165
v -120.4381 71.075 165
v -105 -71.075 165
v -105 71.075 165
v -196.65 -24.93606 130.5711
v -196.65 38.77107 130.5711
v -196.65 -24.93606 45.07894
v -196.65 -24.93606 45.07894
v -196.65 38.77107 130.5711
v -196.65 38.77107 45.07894
v -105 -71.075 165
v -105 -71.075 5.785999
v -105 71.075 165
v -105 71.075 165
v -105 -71.075 5.785999
v -105 71.075 5.785999
v -150.5111 -71.075 165
v -150.5111 -71.075 5.785999
v -105 -71.075 165
v -105 -71.075 165
v -150.5111 -71.075 5.785999
v -105 -71.075 5.785999
v -164.3461 71.075 12.77501
v -164.3461 71.075 121.092
v -157.3571 71.075 5.785999
v -157.3571 71.075 5.785999
v -164.3461 71.075 121.092
v -105 71.075 5.785999
v -105 71.075 5.785999
v -164.3461 71.075 121.092
v -105 71.075 165
v -105 71.075 165
v -164.3461 71.075 121.092
v -120.4381 71.075 165
v -196.65 -24.93606 45.07894
v -157.3571 -64.229 5.785999
v -196.65 -24.93606 130.5711
v -196.65 -24.93606 130.5711
v -157.3571 -64.229 5.785999
v -162.2211 -59.36499 165
v -162.2211 -59.36499 165
v -157.3571 -64.229 5.785999
v -150.5111 -71.075 165
v -150.5111 -71.075 165
v -157.3571 -64.229 5.785999
v -150.5111 -71.075 5.785999
v -157.3571 71.075 5.785999
v -157.3571 -64.229 5.785999
v -164.3461 71.075 12.77501
v -164.3461 71.075 12.77501
v -157.3571 -64.229 5.785999
v -196.65 38.77107 45.07894
v -196.65 38.77107 45.07894
v -157.3571 -64.229 5.785999
v -196.65 -24.93606 45.07894
v -162.2211 -59.36499 165
v -162.2211 41.52997 165
v -196.65 -24.93606 130.5711
v -196.65 -24.93606 130.5711
v -162.2211 41.52997 165
v -196.65 38.77107 130.5711
v -196.65 38.77107 130.5711
v -162.2211 41.52997 165
v -193.8911 41.52997 133.33
v -196.65 38.77107 130.5711
v -193.8911 41.52997 133.33
v -196.65 38.77107 45.07894
v -196.65 38.77107 45.07894
v -193.8911 41.52997 133.33
v -164.3461 71.075 12.77501
v -164.3461 71.075 12.77501
v -193.8911 41.52997 133.33
v -164.3461 71.075 121.092
v -193.8911 41.52997 133.33
v -162.2211 41.52997 165
v -164.3461 71.075 121.092
v -164.3461 71.075 121.092
v -162.2211 41.52997 165
v -120.4381 71.075 165

vn 0 0 -1
vn 0 0 -1
vn 0 0 -1
vn 0 0 -1
vn 0 0 -1
vn 0 0 -1
vn 0 0 -1
vn 0 0 -1
vn 0 0 -1
vn 0 0 -0.9999999
vn 0 0 -0.9999999
vn 0 0 -0.9999999
vn 0 0 -1
vn 0 0 -1
vn 0 0 -1
vn 0 0 -1
vn 0 0 -1
vn 0 0 -1
vn 0 0 -1
vn 0 0 -1
vn 0 0 -1
vn 0 0 1
vn 0 0 1
vn 0 0 1
vn 0 0 1
vn 0 0 1
vn 0 0 1
vn 0 0 1
vn 0 0 1
vn 0 0 1
vn 0 0 1
vn 0 0 1
vn 0 0 1
vn 0 0 1
vn 0 0 1
vn 0 0 1
vn 0 0 1
vn 0 0 1
vn 0 0 1
vn 0 0 1
vn 0 0 1
vn 0 0 1
vn -1 0 0
vn -1 0 0
vn -1 0 0
vn -1 0 0
vn -1 0 0
vn -1 0 0
vn 1 0 0
vn 1 0 0
vn 1 0 0
vn 1 0 0
vn 1 0 0
vn 1 0 0
vn 0 -1 0
vn 0 -1 0
vn 0 -1 0
vn 0 -1 0
vn 0 -1 0
vn 0 -1 0
vn 0 1 0
vn 0 1 0
vn 0 1 0
vn 0 1 0
vn 0 1 0
vn 0 1 0
vn -0.7071068 -0.7071068 0
vn -0.7071068 -0.7071068 0
vn -0.7071068 -0.7071068 0
vn -0.7071068 -0.7071068 0
vn -0.7071068 -0.7071068 0
vn -0.7071068 -0.7071068 0
vn -0.7071068 0.7071068 0
vn -0.7071068 0.7071068 0
vn -0.7071068 0.7071068 0
vn -0.7071068 0.7071068 0
vn -0.7071068 0.7071068 0
vn -0.7071068 0.7071068 0
vn -0.3826835 -0.9238796 0
vn -0.3826835 -0.9238796 0
vn -0.3826835 -0.9238796 0
vn -0.3826835 -0.9238796 0
vn -0.3826835 -0.9238796 0
vn -0.3826835 -0.9238796 0
vn 0.7071068 -0.7071068 0
vn 0.7071068 -0.7071068 0
vn 0.7071068 -0.7071068 0
vn 0.7071068 -0.7071068 0
vn 0.7071068 -0.7071068 0
vn 0.7071068 -0.7071068 0
vn -0.3826834 0.9238795 0
vn -0.3826834 0.9238795 0
vn -0.3826834 0.9238795 0
vn -0.3826834 0.9238795 0
vn -0.3826834 0.9238795 0
vn -0.3826834 0.9238795 0
vn 0 0 -1
vn 0 0 -1
vn 0 0 -1
vn 0 0 -1
vn 0 0 -1
vn 0 0 -1
vn 0 0 -1
vn 0 0 -1
vn 0 0 -1
vn 0 0 -1
vn 0 0 -1
vn 0 0 -1
vn 0 0 -1
vn 0 0 -1
vn 0 0 -1
vn 0 0 -1
vn 0 0 -1
vn 0 0 -1
vn 0 0 -1
vn 0 0 -1
vn 0 0 -1
vn 0 0 1
vn 0 0 1
vn 0 0 1
vn 0 0 1
vn 0 0 1
vn 0 0 1
vn 0 0 0.9999999
vn 0 0 0.9999999
vn 0 0 0.9999999
vn 0 0 1
vn 0 0 1
vn 0 0 1
vn 0 0 1
vn 0 0 1
vn 0 0 1
vn 0 0 1
vn 0 0 1
vn 0 0 1
vn 0 0 1
vn 0 0 1
vn 0 0 1
vn -1 0 0
vn -1 0 0
vn -1 0 0
vn -1 0 0
vn -1 0 0
vn -1 0 0
vn 1 0 0
vn 1 0 0
vn 1 0 0
vn 1 0 0
vn 1 0 0
vn 1 0 0
vn 0 -1 0
vn 0 -1 0
vn 0 -1 0
vn 0 -1 0
vn 0 -1 0
vn 0 -1 0
vn 0 1 0
vn 0 1 0
vn 0 1 0
vn 0 1 0
vn 0 1 0
vn 0 1 0
vn 0.7071068 0.7071068 0
vn 0.7071068 0.7071068 0
vn 0.7071068 0.7071068 0
vn 0.7071068 0.7071068 0
vn 0.7071068 0.7071068 0
vn 0.7071068 0.7071068 0
vn 0.7071068 -0.7071068 0
vn 0.7071068 -0.7071068 0
vn 0.7071068 -0.7071068 0
vn 0.7071068 -0.7071068 0
vn 0.7071068 -0.7071068 0
vn 0.7071068 -0.7071068 0
vn -0.7071068 0.7071068 0
vn -0.7071068 0.7071068 0
vn -0.7071068 0.7071068 0
vn -0.7071068 0.7071068 0
vn -0.7071068 0.7071068 0
vn -0.7071068 0.7071068 0
vn -0.7071068 -0.7071068 0
vn -0.7071068 -0.7071068 0
vn -0.7071068 -0.7071068 0
vn -0.7071068 -0.7071068 0
vn -0.7071068 -0.7071068 0
vn -0.7071068 -0.7071068 0
vn -0.3826834 0.9238794 0
vn -0.3826834 0.9238794 0
vn -0.3826834 0.9238794 0
vn -0.3826834 0.9238794 0
vn -0.3826834 0.9238794 0
vn -0.3826834 0.9238794 0
vn 0 0 -1
vn 0 0 -1
vn 0 0 -1
vn 0 0 -0.9999999
vn 0 0 -0.9999999
vn 0 0 -0.9999999
vn 0 0 -0.9999999
vn 0 0 -0.9999999
vn 0 0 -0.9999999
vn 0 0 1
vn 0 0 1
vn 0 0 1
vn 0 0 1
vn 0 0 1
vn 0 0 1
vn 0 0 0.9999999
vn 0 0 0.9999999
vn 0 0 0.9999999
vn 0 0 0.9999999
vn 0 0 0.9999999
vn 0 0 0.9999999
vn -1 0 0
vn -1 0 0
vn -1 0 0
vn -1 0 0
vn -1 0 0
vn -1 0 0
vn 0.9999999 0 0
vn 0.9999999 0 0
vn 0.9999999 0 0
vn 0.9999999 0 0
vn 0.9999999 0 0
vn 0.9999999 0 0
vn 0 -1 0
vn 0 -1 0
vn 0 -1 0
vn 0 -1 0
vn 0 -1 0
vn 0 -1 0
vn 0 1 0
vn 0 1 0
vn 0 1 0
vn 0 1 0
vn 0 1 0
vn 0 1 0
vn 0 1 0
vn 0 1 0
vn 0 1 0
vn 0 1 0
vn 0 1 0
vn 0 1 0
vn -0.7071068 -0.7071067 0
vn -0.7071068 -0.7071067 0
vn -0.7071068 -0.7071067 0
vn -0.7071068 -0.7071066 -5.72997E-09
vn -0.7071068 -0.7071066 -5.72997E-09
vn -0.7071068 -0.7071066 -5.72997E-09
vn -0.7071068 -0.7071068 0
vn -0.7071068 -0.7071068 0
vn -0.7071068 -0.7071068 0
vn -0.7071068 -0.7071068 0
vn -0.7071068 -0.7071068 0
vn -0.7071068 -0.7071068 0
vn -0.7071068 0 -0.7071068
vn -0.7071068 0 -0.7071068
vn -0.7071068 0 -0.7071068
vn -0.7071068 0 -0.7071068
vn -0.7071068 0 -0.7071068
vn -0.7071068 0 -0.7071068
vn -0.7071068 0 -0.7071067
vn -0.7071068 0 -0.7071067
vn -0.7071068 0 -0.7071067
vn -0.7071068 0 0.7071068
vn -0.7071068 0 0.7071068
vn -0.7071068 0 0.7071068
vn -0.7071068 0 0.7071068
vn -0.7071068 0 0.7071068
vn -0.7071068 0 0.7071068
vn -0.7071068 0 0.7071068
vn -0.7071068 0 0.7071068
vn -0.7071068 0 0.7071068
vn -0.7071074 0.7071064 0
vn -0.7071074 0.7071064 0
vn -0.7071074 0.7071064 0
vn -0.7071068 0.7071066 -2.935965E-08
vn -0.7071068 0.7071066 -2.935965E-08
vn -0.7071068 0.7071066 -2.935965E-08
vn -0.7071068 0.7071068 0
vn -0.7071068 0.7071068 0
vn -0.7071068 0.7071068 0
vn -0.4999999 0.7071068 0.4999999
vn -0.4999999 0.7071068 0.4999999
vn -0.4999999 0.7071068 0.4999999
vn -0.5 0.7071069 0.5
vn -0.5 0.7071069 0.5
vn -0.5 0.7071069 0.5



f 1//1 2//2 3//3
f 4//4 5//5 6//6
f 7//7 8//8 9//9
f 10//10 11//11 12//12
f 13//13 14//14 15//15
f 16//16 17//17 18//18
f 19//19 20//20 21//21
f 22//22 23//23 24//24
f 25//25 26//26 27//27
f 28//28 29//29 30//30
f 31//31 32//32 33//33
f 34//34 35//35 36//36
f 37//37 38//38 39//39
f 40//40 41//41 42//42
f 43//43 44//44 45//45
f 46//46 47//47 48//48
f 49//49 50//50 51//51
f 52//52 53//53 54//54
f 55//55 56//56 57//57
f 58//58 59//59 60//60
f 61//61 62//62 63//63
f 64//64 65//65 66//66
f 67//67 68//68 69//69
f 70//70 71//71 72//72
f 73//73 74//74 75//75
f 76//76 77//77 78//78
f 79//79 80//80 81//81
f 82//82 83//83 84//84
f 85//85 86//86 87//87
f 88//88 89//89 90//90
f 91//91 92//92 93//93
f 94//94 95//95 96//96
f 97//97 98//98 99//99
f 100//100 101//101 102//102
f 103//103 104//104 105//105
f 106//106 107//107 108//108
f 109//109 110//110 111//111
f 112//112 113//113 114//114
f 115//115 116//116 117//117
f 118//118 119//119 120//120
f 121//121 122//122 123//123
f 124//124 125//125 126//126
f 127//127 128//128 129//129
f 130//130 131//131 132//132
f 133//133 134//134 135//135
f 136//136 137//137 138//138
f 139//139 140//140 141//141
f 142//142 143//143 144//144
f 145//145 146//146 147//147
f 148//148 149//149 150//150
f 151//151 152//152 153//153
f 154//154 155//155 156//156
f 157//157 158//158 159//159
f 160//160 161//161 162//162
f 163//163 164//164 165//165
f 166//166 167//167 168//168
f 169//169 170//170 171//171
f 172//172 173//173 174//174
f 175//175 176//176 177//177
f 178//178 179//179 180//180
f 181//181 182//182 183//183
f 184//184 185//185 186//186
f 187//187 188//188 189//189
f 190//190 191//191 192//192
f 193//193 194//194 195//195
f 196//196 197//197 198//198
f 199//199 200//200 201//201
f 202//202 203//203 204//204
f 205//205 206//206 207//207
f 208//208 209//209 210//210
f 211//211 212//212 213//213
f 214//214 215//215 216//216
f 217//217 218//218 219//219
f 220//220 221//221 222//222
f 223//223 224//224 225//225
f 226//226 227//227 228//228
f 229//229 230//230 231//231
f 232//232 233//233 234//234
f 235//235 236//236 237//237
f 238//238 239//239 240//240
f 241//241 242//242 243//243
f 244//244 245//245 246//246
f 247//247 248//248 249//249
f 250//250 251//251 252//252
f 253//253 254//254 255//255
f 256//256 257//257 258//258
f 259//259 260//260 261//261
f 262//262 263//263 264//264
f 265//265 266//266 267//267
f 268//268 269//269 270//270
f 271//271 272//272 273//273
f 274//274 275//275 276//276
f 277//277 278//278 279//279
f 280//280 281//281 282//282
f 283//283 284//284 285//285
f 286//286 287//287 288//288
