mtllib Collision_5_3.mtl
usemtl 
g 

v 410.173 -54.15 719.3
v 410.173 25.25627 719.3
v 549.803 -54.15 719.3
v 549.803 -54.15 719.3
v 410.173 25.25627 719.3
v 549.803 25.36535 719.3
v 549.803 25.36535 719.3
v 410.173 25.25627 719.3
v 516.1683 59 719.3
v 516.1683 59 719.3
v 410.173 25.25627 719.3
v 443.9167 59 719.3
v 508.9243 -54.15 884.827
v 508.9243 25.24952 884.827
v 451.0777 -54.15 884.827
v 451.0777 -54.15 884.827
v 508.9243 25.24952 884.827
v 451.0777 59 884.827
v 451.0777 59 884.827
v 508.9243 25.24952 884.827
v 461.1939 59 884.827
v 410.173 -54.15 843.9223
v 410.173 25.25627 843.9223
v 410.173 -54.15 719.3
v 410.173 -54.15 719.3
v 410.173 25.25627 843.9223
v 410.173 25.25627 719.3
v 549.803 -54.15 719.3
v 549.803 25.36535 719.3
v 549.803 -54.15 843.9483
v 549.803 -54.15 843.9483
v 549.803 25.36535 719.3
v 549.803 25.24952 843.9483
v 549.803 25.24952 843.9483
v 549.803 25.36535 719.3
v 549.803 25.36535 843.7845
v 410.173 -54.15 843.9223
v 410.173 -54.15 719.3
v 451.0777 -54.15 884.827
v 451.0777 -54.15 884.827
v 410.173 -54.15 719.3
v 508.9243 -54.15 884.827
v 508.9243 -54.15 884.827
v 410.173 -54.15 719.3
v 549.803 -54.15 843.9483
v 549.803 -54.15 843.9483
v 410.173 -54.15 719.3
v 549.803 -54.15 719.3
v 443.9167 59 719.3
v 443.9167 59 877.666
v 516.1683 59 719.3
v 516.1683 59 719.3
v 443.9167 59 877.666
v 516.1683 59 829.8525
v 516.1683 59 829.8525
v 443.9167 59 877.666
v 461.1939 59 884.827
v 461.1939 59 884.827
v 443.9167 59 877.666
v 451.0777 59 884.827
v 410.173 -54.15 843.9223
v 451.0777 -54.15 884.827
v 410.173 25.25627 843.9223
v 410.173 25.25627 843.9223
v 451.0777 -54.15 884.827
v 443.9167 59 877.666
v 443.9167 59 877.666
v 451.0777 -54.15 884.827
v 451.0777 59 884.827
v 508.9243 25.24952 884.827
v 508.9243 -54.15 884.827
v 549.803 25.24952 843.9483
v 549.803 25.24952 843.9483
v 508.9243 -54.15 884.827
v 549.803 -54.15 843.9483
v 461.1939 59 884.827
v 508.9243 25.24952 884.827
v 516.1683 59 829.8525
v 516.1683 59 829.8525
v 508.9243 25.24952 884.827
v 549.803 25.36535 843.7845
v 549.803 25.36535 843.7845
v 508.9243 25.24952 884.827
v 549.803 25.24952 843.9483
v 443.9167 59 719.3
v 410.173 25.25627 719.3
v 443.9167 59 877.666
v 443.9167 59 877.666
v 410.173 25.25627 719.3
v 410.173 25.25627 843.9223
v 549.803 25.36535 843.7845
v 549.803 25.36535 719.3
v 516.1683 59 829.8525
v 516.1683 59 829.8525
v 549.803 25.36535 719.3
v 516.1683 59 719.3

vn 0 0 -0.9999999
vn 0 0 -0.9999999
vn 0 0 -0.9999999
vn 0 0 -1
vn 0 0 -1
vn 0 0 -1
vn 0 0 -1
vn 0 0 -1
vn 0 0 -1
vn 0 0 -1
vn 0 0 -1
vn 0 0 -1
vn 0 0 1
vn 0 0 1
vn 0 0 1
vn 0 0 0.9999999
vn 0 0 0.9999999
vn 0 0 0.9999999
vn 0 0 1
vn 0 0 1
vn 0 0 1
vn -1 0 0
vn -1 0 0
vn -1 0 0
vn -1 0 0
vn -1 0 0
vn -1 0 0
vn 1 0 0
vn 1 0 0
vn 1 0 0
vn 0.9999999 0 0
vn 0.9999999 0 0
vn 0.9999999 0 0
vn 1 0 0
vn 1 0 0
vn 1 0 0
vn 0 -1 0
vn 0 -1 0
vn 0 -1 0
vn 0 -1 0
vn 0 -1 0
vn 0 -1 0
vn 0 -1 0
vn 0 -1 0
vn 0 -1 0
vn 0 -1 0
vn 0 -1 0
vn 0 -1 0
vn 0 0.9999999 0
vn 0 0.9999999 0
vn 0 0.9999999 0
vn 0 1 0
vn 0 1 0
vn 0 1 0
vn 0 1 0
vn 0 1 0
vn 0 1 0
vn 0 1 0
vn 0 1 0
vn 0 1 0
vn -0.7071068 0 0.7071068
vn -0.7071068 0 0.7071068
vn -0.7071068 0 0.7071068
vn -0.7071066 2.179319E-07 0.707107
vn -0.7071066 2.179319E-07 0.707107
vn -0.7071066 2.179319E-07 0.707107
vn -0.7071083 0 0.7071052
vn -0.7071083 0 0.7071052
vn -0.7071083 0 0.7071052
vn 0.7071065 0 0.707107
vn 0.7071065 0 0.707107
vn 0.7071065 0 0.707107
vn 0.7071065 0 0.707107
vn 0.7071065 0 0.707107
vn 0.7071065 0 0.707107
vn 0.5 0.7071066 0.5
vn 0.5 0.7071066 0.5
vn 0.5 0.7071066 0.5
vn 0.4999998 0.7071068 0.5000001
vn 0.4999998 0.7071068 0.5000001
vn 0.4999998 0.7071068 0.5000001
vn 0.4999874 0.7071243 0.4999878
vn 0.4999874 0.7071243 0.4999878
vn 0.4999874 0.7071243 0.4999878
vn -0.7071066 0.7071068 0
vn -0.7071066 0.7071068 0
vn -0.7071066 0.7071068 0
vn -0.7071067 0.7071069 0
vn -0.7071067 0.7071069 0
vn -0.7071067 0.7071069 0
vn 0.7071069 0.7071067 0
vn 0.7071069 0.7071067 0
vn 0.7071069 0.7071067 0
vn 0.7071068 0.7071066 0
vn 0.7071068 0.7071066 0
vn 0.7071068 0.7071066 0



f 1//1 2//2 3//3
f 4//4 5//5 6//6
f 7//7 8//8 9//9
f 10//10 11//11 12//12
f 13//13 14//14 15//15
f 16//16 17//17 18//18
f 19//19 20//20 21//21
f 22//22 23//23 24//24
f 25//25 26//26 27//27
f 28//28 29//29 30//30
f 31//31 32//32 33//33
f 34//34 35//35 36//36
f 37//37 38//38 39//39
f 40//40 41//41 42//42
f 43//43 44//44 45//45
f 46//46 47//47 48//48
f 49//49 50//50 51//51
f 52//52 53//53 54//54
f 55//55 56//56 57//57
f 58//58 59//59 60//60
f 61//61 62//62 63//63
f 64//64 65//65 66//66
f 67//67 68//68 69//69
f 70//70 71//71 72//72
f 73//73 74//74 75//75
f 76//76 77//77 78//78
f 79//79 80//80 81//81
f 82//82 83//83 84//84
f 85//85 86//86 87//87
f 88//88 89//89 90//90
f 91//91 92//92 93//93
f 94//94 95//95 96//96
