mtllib Collision_6_3.mtl
usemtl 
g 

v 468.2848 28.28427 715
v 491.7152 28.28427 715
v 438.805 -1.195493 715
v 438.805 -1.195493 715
v 491.7152 28.28427 715
v 438.805 -20.279 715
v 438.805 -20.279 715
v 491.7152 28.28427 715
v 521.195 -20.279 715
v 521.195 -20.279 715
v 491.7152 28.28427 715
v 521.195 -1.195493 715
v 521.195 -20.279 759.3
v 521.195 17.06927 759.3
v 438.805 -20.279 759.3
v 438.805 -20.279 759.3
v 521.195 17.06927 759.3
v 438.805 17.06924 759.3
v 438.805 17.06924 759.3
v 521.195 17.06927 759.3
v 462.9358 41.2 759.3
v 462.9358 41.2 759.3
v 521.195 17.06927 759.3
v 497.0643 41.2 759.3
v 438.805 -1.195493 715
v 438.805 -20.279 715
v 438.805 17.06924 727.9151
v 438.805 17.06924 727.9151
v 438.805 -20.279 715
v 438.805 17.06924 759.3
v 438.805 17.06924 759.3
v 438.805 -20.279 715
v 438.805 -20.279 759.3
v 521.195 -1.195493 715
v 521.195 17.06927 727.9152
v 521.195 -20.279 715
v 521.195 -20.279 715
v 521.195 17.06927 727.9152
v 521.195 -20.279 759.3
v 521.195 -20.279 759.3
v 521.195 17.06927 727.9152
v 521.195 17.06927 759.3
v 438.805 -20.279 759.3
v 438.805 -20.279 715
v 521.195 -20.279 759.3
v 521.195 -20.279 759.3
v 438.805 -20.279 715
v 521.195 -20.279 715
v 497.0643 41.2 727.9157
v 462.9358 41.2 727.9157
v 497.0643 41.2 759.3
v 497.0643 41.2 759.3
v 462.9358 41.2 727.9157
v 462.9358 41.2 759.3
v 462.9352 41.19939 727.9151
v 438.805 17.06924 727.9151
v 462.9358 41.2 727.9157
v 462.9358 41.2 727.9157
v 438.805 17.06924 727.9151
v 462.9358 41.2 759.3
v 462.9358 41.2 759.3
v 438.805 17.06924 727.9151
v 438.805 17.06924 759.3
v 521.195 17.06927 727.9152
v 497.0649 41.19941 727.9152
v 521.195 17.06927 759.3
v 521.195 17.06927 759.3
v 497.0649 41.19941 727.9152
v 497.0643 41.2 759.3
v 497.0643 41.2 759.3
v 497.0649 41.19941 727.9152
v 497.0643 41.2 727.9157
v 468.2848 28.28427 715
v 462.9352 41.19939 727.9151
v 491.7152 28.28427 715
v 491.7152 28.28427 715
v 462.9352 41.19939 727.9151
v 497.0649 41.19941 727.9152
v 497.0649 41.19941 727.9152
v 462.9352 41.19939 727.9151
v 497.0643 41.2 727.9157
v 497.0643 41.2 727.9157
v 462.9352 41.19939 727.9151
v 462.9358 41.2 727.9157
v 521.195 -1.195493 715
v 491.7152 28.28427 715
v 521.195 17.06927 727.9152
v 521.195 17.06927 727.9152
v 491.7152 28.28427 715
v 497.0649 41.19941 727.9152
v 462.9352 41.19939 727.9151
v 468.2848 28.28427 715
v 438.805 17.06924 727.9151
v 438.805 17.06924 727.9151
v 468.2848 28.28427 715
v 438.805 -1.195493 715
v 468.2848 -28.28427 715
v 438.805 1.195493 715
v 491.7152 -28.28427 715
v 491.7152 -28.28427 715
v 438.805 1.195493 715
v 521.195 1.195493 715
v 521.195 1.195493 715
v 438.805 1.195493 715
v 521.195 20.456 715
v 521.195 20.456 715
v 438.805 1.195493 715
v 438.805 20.456 715
v 497.0643 -41.2 759.3
v 521.195 -17.06927 759.3
v 462.9358 -41.2 759.3
v 462.9358 -41.2 759.3
v 521.195 -17.06927 759.3
v 438.805 -17.06924 759.3
v 438.805 -17.06924 759.3
v 521.195 -17.06927 759.3
v 438.805 20.456 759.3
v 438.805 20.456 759.3
v 521.195 -17.06927 759.3
v 521.195 20.456 759.3
v 438.805 1.195493 715
v 438.805 -17.06924 727.9151
v 438.805 20.456 715
v 438.805 20.456 715
v 438.805 -17.06924 727.9151
v 438.805 20.456 759.3
v 438.805 20.456 759.3
v 438.805 -17.06924 727.9151
v 438.805 -17.06924 759.3
v 521.195 -17.06927 727.9152
v 521.195 1.195493 715
v 521.195 -17.06927 759.3
v 521.195 -17.06927 759.3
v 521.195 1.195493 715
v 521.195 20.456 759.3
v 521.195 20.456 759.3
v 521.195 1.195493 715
v 521.195 20.456 715
v 462.9358 -41.2 727.9157
v 497.0643 -41.2 727.9157
v 462.9358 -41.2 759.3
v 462.9358 -41.2 759.3
v 497.0643 -41.2 727.9157
v 497.0643 -41.2 759.3
v 521.195 20.456 715
v 438.805 20.456 715
v 521.195 20.456 759.3
v 521.195 20.456 759.3
v 438.805 20.456 715
v 438.805 20.456 759.3
v 438.805 -17.06924 727.9151
v 462.9352 -41.19939 727.9151
v 438.805 -17.06924 759.3
v 438.805 -17.06924 759.3
v 462.9352 -41.19939 727.9151
v 462.9358 -41.2 759.3
v 462.9358 -41.2 759.3
v 462.9352 -41.19939 727.9151
v 462.9358 -41.2 727.9157
v 497.0643 -41.2 727.9157
v 497.0649 -41.19941 727.9152
v 497.0643 -41.2 759.3
v 497.0643 -41.2 759.3
v 497.0649 -41.19941 727.9152
v 521.195 -17.06927 759.3
v 521.195 -17.06927 759.3
v 497.0649 -41.19941 727.9152
v 521.195 -17.06927 727.9152
v 468.2848 -28.28427 715
v 491.7152 -28.28427 715
v 462.9352 -41.19939 727.9151
v 462.9352 -41.19939 727.9151
v 491.7152 -28.28427 715
v 462.9358 -41.2 727.9157
v 462.9358 -41.2 727.9157
v 491.7152 -28.28427 715
v 497.0643 -41.2 727.9157
v 497.0643 -41.2 727.9157
v 491.7152 -28.28427 715
v 497.0649 -41.19941 727.9152
v 497.0649 -41.19941 727.9152
v 491.7152 -28.28427 715
v 521.195 -17.06927 727.9152
v 521.195 -17.06927 727.9152
v 491.7152 -28.28427 715
v 521.195 1.195493 715
v 438.805 -17.06924 727.9151
v 438.805 1.195493 715
v 462.9352 -41.19939 727.9151
v 462.9352 -41.19939 727.9151
v 438.805 1.195493 715
v 468.2848 -28.28427 715

vn 0 0 -1
vn 0 0 -1
vn 0 0 -1
vn 0 0 -1
vn 0 0 -1
vn 0 0 -1
vn 0 0 -0.9999999
vn 0 0 -0.9999999
vn 0 0 -0.9999999
vn 0 0 -1
vn 0 0 -1
vn 0 0 -1
vn 0 0 1
vn 0 0 1
vn 0 0 1
vn 0 0 1
vn 0 0 1
vn 0 0 1
vn 0 0 1
vn 0 0 1
vn 0 0 1
vn 0 0 1
vn 0 0 1
vn 0 0 1
vn -1 0 0
vn -1 0 0
vn -1 0 0
vn -1 0 0
vn -1 0 0
vn -1 0 0
vn -1 0 0
vn -1 0 0
vn -1 0 0
vn 0.9999999 0 0
vn 0.9999999 0 0
vn 0.9999999 0 0
vn 0.9999999 0 0
vn 0.9999999 0 0
vn 0.9999999 0 0
vn 1 0 0
vn 1 0 0
vn 1 0 0
vn 0 -1 0
vn 0 -1 0
vn 0 -1 0
vn 0 -1 0
vn 0 -1 0
vn 0 -1 0
vn 0 1 0
vn 0 1 0
vn 0 1 0
vn 0 1 0
vn 0 1 0
vn 0 1 0
vn -0.7070997 0.7071001 0.004419057
vn -0.7070997 0.7071001 0.004419057
vn -0.7070997 0.7071001 0.004419057
vn -0.7071066 0.707107 0
vn -0.7071066 0.707107 0
vn -0.7071066 0.707107 0
vn -0.7071065 0.7071069 0
vn -0.7071065 0.7071069 0
vn -0.7071065 0.7071069 0
vn 0.7071069 0.7071066 0
vn 0.7071069 0.7071066 0
vn 0.7071069 0.7071066 0
vn 0.7071065 0.707107 6.016126E-07
vn 0.7071065 0.707107 6.016126E-07
vn 0.7071065 0.707107 6.016126E-07
vn 0.6911201 0.7227399 0
vn 0.6911201 0.7227399 0
vn 0.6911201 0.7227399 0
vn 0 0.7071063 -0.7071074
vn 0 0.7071063 -0.7071074
vn 0 0.7071063 -0.7071074
vn 7.903359E-07 0.7071071 -0.7071064
vn 7.903359E-07 0.7071071 -0.7071064
vn 7.903359E-07 0.7071071 -0.7071064
vn 8.42638E-07 0.6853651 -0.7281995
vn 8.42638E-07 0.6853651 -0.7281995
vn 8.42638E-07 0.6853651 -0.7281995
vn 0 0.7093199 -0.7048867
vn 0 0.7093199 -0.7048867
vn 0 0.7093199 -0.7048867
vn 0.5000004 0.5000004 -0.7071063
vn 0.5000004 0.5000004 -0.7071063
vn 0.5000004 0.5000004 -0.7071063
vn 0.5000004 0.5000001 -0.7071065
vn 0.5000004 0.5000001 -0.7071065
vn 0.5000004 0.5000001 -0.7071065
vn -0.4999996 0.4999999 -0.7071072
vn -0.4999996 0.4999999 -0.7071072
vn -0.4999996 0.4999999 -0.7071072
vn -0.4999996 0.4999996 -0.7071074
vn -0.4999996 0.4999996 -0.7071074
vn -0.4999996 0.4999996 -0.7071074
vn 0 0 -1
vn 0 0 -1
vn 0 0 -1
vn 0 0 -1
vn 0 0 -1
vn 0 0 -1
vn 0 0 -1
vn 0 0 -1
vn 0 0 -1
vn 0 0 -1
vn 0 0 -1
vn 0 0 -1
vn 0 0 1
vn 0 0 1
vn 0 0 1
vn 0 0 1
vn 0 0 1
vn 0 0 1
vn 0 0 1
vn 0 0 1
vn 0 0 1
vn 0 0 0.9999999
vn 0 0 0.9999999
vn 0 0 0.9999999
vn -1 0 0
vn -1 0 0
vn -1 0 0
vn -1 0 0
vn -1 0 0
vn -1 0 0
vn -1 0 0
vn -1 0 0
vn -1 0 0
vn 1 0 0
vn 1 0 0
vn 1 0 0
vn 1 0 0
vn 1 0 0
vn 1 0 0
vn 1 0 0
vn 1 0 0
vn 1 0 0
vn 0 -1 0
vn 0 -1 0
vn 0 -1 0
vn 0 -1 0
vn 0 -1 0
vn 0 -1 0
vn 0 1 0
vn 0 1 0
vn 0 1 0
vn 0 1 0
vn 0 1 0
vn 0 1 0
vn -0.7071066 -0.7071069 0
vn -0.7071066 -0.7071069 0
vn -0.7071066 -0.7071069 0
vn -0.7071065 -0.7071069 8.593742E-08
vn -0.7071065 -0.7071069 8.593742E-08
vn -0.7071065 -0.7071069 8.593742E-08
vn -0.7048867 -0.7093199 0
vn -0.7048867 -0.7093199 0
vn -0.7048867 -0.7093199 0
vn 0.6911201 -0.7227399 0
vn 0.6911201 -0.7227399 0
vn 0.6911201 -0.7227399 0
vn 0.7071065 -0.707107 5.698688E-07
vn 0.7071065 -0.707107 5.698688E-07
vn 0.7071065 -0.707107 5.698688E-07
vn 0.7071069 -0.7071066 0
vn 0.7071069 -0.7071066 0
vn 0.7071069 -0.7071066 0
vn 0 -0.7071063 -0.7071074
vn 0 -0.7071063 -0.7071074
vn 0 -0.7071063 -0.7071074
vn 0.001372201 -0.7086328 -0.7055761
vn 0.001372201 -0.7086328 -0.7055761
vn 0.001372201 -0.7086328 -0.7055761
vn 0 -0.7071064 -0.7071072
vn 0 -0.7071064 -0.7071072
vn 0 -0.7071064 -0.7071072
vn 0.02871761 -0.700843 -0.7127372
vn 0.02871761 -0.700843 -0.7127372
vn 0.02871761 -0.700843 -0.7127372
vn 0.5000004 -0.5000001 -0.7071065
vn 0.5000004 -0.5000001 -0.7071065
vn 0.5000004 -0.5000001 -0.7071065
vn 0.5000004 -0.5000004 -0.7071063
vn 0.5000004 -0.5000004 -0.7071063
vn 0.5000004 -0.5000004 -0.7071063
vn -0.4999994 -0.4999996 -0.7071073
vn -0.4999994 -0.4999996 -0.7071073
vn -0.4999994 -0.4999996 -0.7071073
vn -0.4999997 -0.4999998 -0.7071072
vn -0.4999997 -0.4999998 -0.7071072
vn -0.4999997 -0.4999998 -0.7071072



f 1//1 2//2 3//3
f 4//4 5//5 6//6
f 7//7 8//8 9//9
f 10//10 11//11 12//12
f 13//13 14//14 15//15
f 16//16 17//17 18//18
f 19//19 20//20 21//21
f 22//22 23//23 24//24
f 25//25 26//26 27//27
f 28//28 29//29 30//30
f 31//31 32//32 33//33
f 34//34 35//35 36//36
f 37//37 38//38 39//39
f 40//40 41//41 42//42
f 43//43 44//44 45//45
f 46//46 47//47 48//48
f 49//49 50//50 51//51
f 52//52 53//53 54//54
f 55//55 56//56 57//57
f 58//58 59//59 60//60
f 61//61 62//62 63//63
f 64//64 65//65 66//66
f 67//67 68//68 69//69
f 70//70 71//71 72//72
f 73//73 74//74 75//75
f 76//76 77//77 78//78
f 79//79 80//80 81//81
f 82//82 83//83 84//84
f 85//85 86//86 87//87
f 88//88 89//89 90//90
f 91//91 92//92 93//93
f 94//94 95//95 96//96
f 97//97 98//98 99//99
f 100//100 101//101 102//102
f 103//103 104//104 105//105
f 106//106 107//107 108//108
f 109//109 110//110 111//111
f 112//112 113//113 114//114
f 115//115 116//116 117//117
f 118//118 119//119 120//120
f 121//121 122//122 123//123
f 124//124 125//125 126//126
f 127//127 128//128 129//129
f 130//130 131//131 132//132
f 133//133 134//134 135//135
f 136//136 137//137 138//138
f 139//139 140//140 141//141
f 142//142 143//143 144//144
f 145//145 146//146 147//147
f 148//148 149//149 150//150
f 151//151 152//152 153//153
f 154//154 155//155 156//156
f 157//157 158//158 159//159
f 160//160 161//161 162//162
f 163//163 164//164 165//165
f 166//166 167//167 168//168
f 169//169 170//170 171//171
f 172//172 173//173 174//174
f 175//175 176//176 177//177
f 178//178 179//179 180//180
f 181//181 182//182 183//183
f 184//184 185//185 186//186
f 187//187 188//188 189//189
f 190//190 191//191 192//192
