mtllib Collision_2_3.mtl
usemtl 
g 

v 142.491 54.09273 227.511
v -2.453276 54.09273 227.511
v 142.491 111 227.511
v 142.491 111 227.511
v -2.453276 54.09273 227.511
v -2.453276 111 227.511
v 3.71078 62.74676 862.767
v 76.42623 62.74676 862.767
v 3.71078 111 862.767
v 3.71078 111 862.767
v 76.42623 62.74676 862.767
v 76.42623 111 862.767
v -64.862 -20 780.0203
v -64.862 -5.826022 794.1943
v -64.862 -20 301.6037
v -64.862 -20 301.6037
v -64.862 -5.826022 794.1943
v -64.862 -8.315996 289.9197
v -64.862 -8.315996 289.9197
v -64.862 -5.826022 794.1943
v -64.862 111 289.9197
v -64.862 111 289.9197
v -64.862 -5.826022 794.1943
v -64.862 111 794.1943
v 142.491 -20 301.6037
v 142.491 54.09273 227.511
v 142.491 -20 780.0203
v 142.491 -20 780.0203
v 142.491 54.09273 227.511
v 142.491 -3.318016 796.7023
v 142.491 -3.318016 796.7023
v 142.491 54.09273 227.511
v 142.491 111 796.7023
v 142.491 111 796.7023
v 142.491 54.09273 227.511
v 142.491 111 227.511
v -64.862 -20 780.0203
v -64.862 -20 301.6037
v 142.491 -20 780.0203
v 142.491 -20 780.0203
v -64.862 -20 301.6037
v 142.491 -20 301.6037
v -64.862 111 289.9197
v -64.862 111 794.1943
v -2.453276 111 227.511
v -2.453276 111 227.511
v -64.862 111 794.1943
v 142.491 111 227.511
v 142.491 111 227.511
v -64.862 111 794.1943
v 142.491 111 796.7023
v 142.491 111 796.7023
v -64.862 111 794.1943
v 76.42623 111 862.767
v 76.42623 111 862.767
v -64.862 111 794.1943
v 3.71078 111 862.767
v 76.42623 62.74676 862.767
v 3.71078 62.74676 862.767
v 142.491 -3.318016 796.7023
v 142.491 -3.318016 796.7023
v 3.71078 62.74676 862.767
v 142.491 -20 780.0203
v 142.491 -20 780.0203
v 3.71078 62.74676 862.767
v -64.862 -20 780.0203
v -64.862 -20 780.0203
v 3.71078 62.74676 862.767
v -64.862 -5.826022 794.1943
v -64.862 -8.315996 289.9197
v -2.453276 54.09273 227.511
v -64.862 -20 301.6037
v -64.862 -20 301.6037
v -2.453276 54.09273 227.511
v 142.491 -20 301.6037
v 142.491 -20 301.6037
v -2.453276 54.09273 227.511
v 142.491 54.09273 227.511
v -64.862 -5.826022 794.1943
v 3.71078 62.74676 862.767
v -64.862 111 794.1943
v -64.862 111 794.1943
v 3.71078 62.74676 862.767
v 3.71078 111 862.767
v 76.42623 111 862.767
v 76.42623 62.74676 862.767
v 142.491 111 796.7023
v 142.491 111 796.7023
v 76.42623 62.74676 862.767
v 142.491 -3.318016 796.7023
v -2.453276 111 227.511
v -2.453276 54.09273 227.511
v -64.862 111 289.9197
v -64.862 111 289.9197
v -2.453276 54.09273 227.511
v -64.862 -8.315996 289.9197
v -2.757282 -111.2 227.801
v -2.757282 -53.90273 227.801
v 142.199 -111.2 227.801
v 142.199 -111.2 227.801
v -2.757282 -53.90273 227.801
v 142.199 -53.90273 227.801
v 76.36324 -62.73877 862.863
v 3.648712 -62.73877 862.863
v 76.36324 -111.2 862.863
v 76.36324 -111.2 862.863
v 3.648712 -62.73877 862.863
v 3.648712 -111.2 862.863
v -64.87 -111.2 289.9137
v -64.87 -111.2 794.3443
v -64.87 8.209991 289.9137
v -64.87 8.209991 289.9137
v -64.87 -111.2 794.3443
v -64.87 20 301.7037
v -64.87 20 301.7037
v -64.87 -111.2 794.3443
v -64.87 20 780.1243
v -64.87 20 780.1243
v -64.87 -111.2 794.3443
v -64.87 5.779942 794.3443
v 142.199 -111.2 227.801
v 142.199 -53.90273 227.801
v 142.199 -111.2 797.0273
v 142.199 -111.2 797.0273
v 142.199 -53.90273 227.801
v 142.199 3.096992 797.0273
v 142.199 3.096992 797.0273
v 142.199 -53.90273 227.801
v 142.199 20 780.1243
v 142.199 20 780.1243
v 142.199 -53.90273 227.801
v 142.199 20 301.7037
v -64.87 -111.2 289.9137
v -2.757282 -111.2 227.801
v -64.87 -111.2 794.3443
v -64.87 -111.2 794.3443
v -2.757282 -111.2 227.801
v 3.648712 -111.2 862.863
v 3.648712 -111.2 862.863
v -2.757282 -111.2 227.801
v 76.36324 -111.2 862.863
v 76.36324 -111.2 862.863
v -2.757282 -111.2 227.801
v 142.199 -111.2 797.0273
v 142.199 -111.2 797.0273
v -2.757282 -111.2 227.801
v 142.199 -111.2 227.801
v -64.87 20 301.7037
v -64.87 20 780.1243
v 142.199 20 301.7037
v 142.199 20 301.7037
v -64.87 20 780.1243
v 142.199 20 780.1243
v 76.36324 -62.73877 862.863
v 142.199 3.096992 797.0273
v 3.648712 -62.73877 862.863
v 3.648712 -62.73877 862.863
v 142.199 3.096992 797.0273
v -64.87 5.779942 794.3443
v -64.87 5.779942 794.3443
v 142.199 3.096992 797.0273
v -64.87 20 780.1243
v -64.87 20 780.1243
v 142.199 3.096992 797.0273
v 142.199 20 780.1243
v -2.757282 -53.90273 227.801
v -64.87 8.209991 289.9137
v 142.199 -53.90273 227.801
v 142.199 -53.90273 227.801
v -64.87 8.209991 289.9137
v 142.199 20 301.7037
v 142.199 20 301.7037
v -64.87 8.209991 289.9137
v -64.87 20 301.7037
v 3.648712 -111.2 862.863
v 3.648712 -62.73877 862.863
v -64.87 -111.2 794.3443
v -64.87 -111.2 794.3443
v 3.648712 -62.73877 862.863
v -64.87 5.779942 794.3443
v 142.199 3.096992 797.0273
v 76.36324 -62.73877 862.863
v 142.199 -111.2 797.0273
v 142.199 -111.2 797.0273
v 76.36324 -62.73877 862.863
v 76.36324 -111.2 862.863
v -64.87 8.209991 289.9137
v -2.757282 -53.90273 227.801
v -64.87 -111.2 289.9137
v -64.87 -111.2 289.9137
v -2.757282 -53.90273 227.801
v -2.757282 -111.2 227.801
v 42.33402 -135.301 227.608
v -2.564274 -103.5531 227.608
v 82.56427 -135.301 227.608
v 82.56427 -135.301 227.608
v -2.564274 -103.5531 227.608
v 82.56427 -64.826 227.608
v 82.56427 -64.826 227.608
v -2.564274 -103.5531 227.608
v -2.564274 -64.826 227.608
v 3.706743 -135.301 862.908
v 76.48422 -135.301 862.908
v 3.706743 -64.826 862.908
v 3.706743 -64.826 862.908
v 76.48422 -135.301 862.908
v 76.48422 -64.826 862.908
v -64.871 -135.301 334.813
v -64.871 -135.301 794.3303
v -64.871 -103.5531 289.9147
v -64.871 -103.5531 289.9147
v -64.871 -135.301 794.3303
v -64.871 -64.826 289.9147
v -64.871 -64.826 289.9147
v -64.871 -135.301 794.3303
v -64.871 -64.826 794.3303
v 142.476 -135.301 796.9163
v 142.476 -135.301 287.5197
v 142.476 -64.826 796.9163
v 142.476 -64.826 796.9163
v 142.476 -135.301 287.5197
v 142.476 -64.826 287.5197
v 42.33402 -135.301 227.608
v 82.56427 -135.301 227.608
v -64.871 -135.301 334.813
v -64.871 -135.301 334.813
v 82.56427 -135.301 227.608
v -64.871 -135.301 794.3303
v -64.871 -135.301 794.3303
v 82.56427 -135.301 227.608
v 3.706743 -135.301 862.908
v 3.706743 -135.301 862.908
v 82.56427 -135.301 227.608
v 76.48422 -135.301 862.908
v 76.48422 -135.301 862.908
v 82.56427 -135.301 227.608
v 142.476 -135.301 796.9163
v 142.476 -135.301 796.9163
v 82.56427 -135.301 227.608
v 142.476 -135.301 287.5197
v -64.871 -64.826 289.9147
v -64.871 -64.826 794.3303
v -2.564274 -64.826 227.608
v -2.564274 -64.826 227.608
v -64.871 -64.826 794.3303
v 82.56427 -64.826 227.608
v 82.56427 -64.826 227.608
v -64.871 -64.826 794.3303
v 142.476 -64.826 287.5197
v 142.476 -64.826 287.5197
v -64.871 -64.826 794.3303
v 142.476 -64.826 796.9163
v 142.476 -64.826 796.9163
v -64.871 -64.826 794.3303
v 76.48422 -64.826 862.908
v 76.48422 -64.826 862.908
v -64.871 -64.826 794.3303
v 3.706743 -64.826 862.908
v -64.871 -135.301 794.3303
v 3.706743 -135.301 862.908
v -64.871 -64.826 794.3303
v -64.871 -64.826 794.3303
v 3.706743 -135.301 862.908
v 3.706743 -64.826 862.908
v 76.48422 -64.826 862.908
v 76.48422 -135.301 862.908
v 142.476 -64.826 796.9163
v 142.476 -64.826 796.9163
v 76.48422 -135.301 862.908
v 142.476 -135.301 796.9163
v -2.564274 -64.826 227.608
v -2.564274 -103.5531 227.608
v -64.871 -64.826 289.9147
v -64.871 -64.826 289.9147
v -2.564274 -103.5531 227.608
v -64.871 -103.5531 289.9147
v 142.476 -135.301 287.5197
v 82.56427 -135.301 227.608
v 142.476 -64.826 287.5197
v 142.476 -64.826 287.5197
v 82.56427 -135.301 227.608
v 82.56427 -64.826 227.608
v -64.871 -103.5531 289.9147
v -2.564274 -103.5531 227.608
v -64.871 -135.301 334.813
v -64.871 -135.301 334.813
v -2.564274 -103.5531 227.608
v 42.33402 -135.301 227.608
v 127.967 64.913 445.076
v -61.379 64.913 445.076
v 127.967 135.3 445.076
v 127.967 135.3 445.076
v -61.379 64.913 445.076
v -61.379 135.3 445.076
v 76.48328 64.913 862.896
v 76.48328 104.1873 862.896
v 3.717721 64.913 862.896
v 3.717721 64.913 862.896
v 76.48328 104.1873 862.896
v 3.717721 103.9643 862.896
v 3.717721 103.9643 862.896
v 76.48328 104.1873 862.896
v 4.033164 104.1873 862.896
v -61.379 64.913 797.7993
v -61.379 103.9643 797.7993
v -61.379 64.913 445.076
v -61.379 64.913 445.076
v -61.379 103.9643 797.7993
v -61.379 135.3 445.076
v -61.379 135.3 445.076
v -61.379 103.9643 797.7993
v -61.379 135.3 753.4839
v 127.967 64.913 811.4123
v 127.967 64.913 445.076
v 127.967 104.3475 811.4123
v 127.967 104.3475 811.4123
v 127.967 64.913 445.076
v 127.967 135.3 767.6388
v 127.967 135.3 767.6388
v 127.967 64.913 445.076
v 127.967 135.3 445.076
v -61.379 64.913 797.7993
v -61.379 64.913 445.076
v 3.717721 64.913 862.896
v 3.717721 64.913 862.896
v -61.379 64.913 445.076
v 76.48328 64.913 862.896
v 76.48328 64.913 862.896
v -61.379 64.913 445.076
v 127.967 64.913 811.4123
v 127.967 64.913 811.4123
v -61.379 64.913 445.076
v 127.967 64.913 445.076
v 16.92046 135.3 831.7833
v 63.82248 135.3 831.7833
v -61.379 135.3 753.4839
v -61.379 135.3 753.4839
v 63.82248 135.3 831.7833
v -61.379 135.3 445.076
v -61.379 135.3 445.076
v 63.82248 135.3 831.7833
v 127.967 135.3 445.076
v 127.967 135.3 445.076
v 63.82248 135.3 831.7833
v 127.967 135.3 767.6388
v 3.717721 64.913 862.896
v 3.717721 103.9643 862.896
v -61.379 64.913 797.7993
v -61.379 64.913 797.7993
v 3.717721 103.9643 862.896
v -61.379 103.9643 797.7993
v 76.48328 104.1873 862.896
v 76.48328 64.913 862.896
v 76.64343 104.3475 862.7358
v 76.64343 104.3475 862.7358
v 76.48328 64.913 862.896
v 127.967 104.3475 811.4123
v 127.967 104.3475 811.4123
v 76.48328 64.913 862.896
v 127.967 64.913 811.4123
v 3.717721 103.9643 862.896
v 4.033164 104.1873 862.896
v -61.379 103.9643 797.7993
v -61.379 103.9643 797.7993
v 4.033164 104.1873 862.896
v -61.379 135.3 753.4839
v -61.379 135.3 753.4839
v 4.033164 104.1873 862.896
v 16.92046 135.3 831.7833
v 76.48328 104.1873 862.896
v 76.64343 104.3475 862.7358
v 4.033164 104.1873 862.896
v 4.033164 104.1873 862.896
v 76.64343 104.3475 862.7358
v 16.92046 135.3 831.7833
v 16.92046 135.3 831.7833
v 76.64343 104.3475 862.7358
v 63.82248 135.3 831.7833
v 76.64343 104.3475 862.7358
v 127.967 104.3475 811.4123
v 63.82248 135.3 831.7833
v 63.82248 135.3 831.7833
v 127.967 104.3475 811.4123
v 127.967 135.3 767.6388
v -2.457281 103.5499 227.5
v -2.318124 103.6483 227.5
v -2.457281 64.825 227.5
v -2.457281 64.825 227.5
v -2.318124 103.6483 227.5
v 82.45727 64.825 227.5
v 82.45727 64.825 227.5
v -2.318124 103.6483 227.5
v 82.45727 103.6483 227.5
v -64.871 64.825 518.967
v 92.6523 64.825 518.967
v -64.871 135.301 518.967
v -64.871 135.301 518.967
v 92.6523 64.825 518.967
v 92.6523 135.301 518.967
v -64.87099 103.5499 289.9137
v -64.87099 64.825 289.9137
v -64.87099 135.301 334.8166
v -64.87099 135.301 334.8166
v -64.87099 64.825 289.9137
v -64.871 135.301 518.967
v -64.871 135.301 518.967
v -64.87099 64.825 289.9137
v -64.871 64.825 518.967
v 142.5 64.825 469.1193
v 142.5 64.825 287.5427
v 142.5 135.301 469.1193
v 142.5 135.301 469.1193
v 142.5 64.825 287.5427
v 142.5 135.301 287.5427
v -2.457281 64.825 227.5
v 82.45727 64.825 227.5
v -64.87099 64.825 289.9137
v -64.87099 64.825 289.9137
v 82.45727 64.825 227.5
v -64.871 64.825 518.967
v -64.871 64.825 518.967
v 82.45727 64.825 227.5
v 92.6523 64.825 518.967
v 92.6523 64.825 518.967
v 82.45727 64.825 227.5
v 142.5 64.825 469.1193
v 142.5 64.825 469.1193
v 82.45727 64.825 227.5
v 142.5 64.825 287.5427
v 10.79287 135.301 259.1527
v -64.87099 135.301 334.8166
v 114.11 135.301 259.1527
v 114.11 135.301 259.1527
v -64.87099 135.301 334.8166
v 142.5 135.301 287.5427
v 142.5 135.301 287.5427
v -64.87099 135.301 334.8166
v 142.5 135.301 469.1193
v 142.5 135.301 469.1193
v -64.87099 135.301 334.8166
v 92.6523 135.301 518.967
v 92.6523 135.301 518.967
v -64.87099 135.301 334.8166
v -64.871 135.301 518.967
v -2.457281 103.5499 227.5
v -2.457281 64.825 227.5
v -64.87099 103.5499 289.9137
v -64.87099 103.5499 289.9137
v -2.457281 64.825 227.5
v -64.87099 64.825 289.9137
v 82.45727 64.825 227.5
v 82.45727 103.6483 227.5
v 142.5 64.825 287.5427
v 142.5 64.825 287.5427
v 82.45727 103.6483 227.5
v 142.5 135.301 287.5427
v 142.5 135.301 287.5427
v 82.45727 103.6483 227.5
v 114.11 135.301 259.1527
v 92.6523 135.301 518.967
v 92.6523 64.825 518.967
v 142.5 135.301 469.1193
v 142.5 135.301 469.1193
v 92.6523 64.825 518.967
v 142.5 64.825 469.1193
v -2.318124 103.6483 227.5
v -2.457281 103.5499 227.5
v 10.79287 135.301 259.1527
v 10.79287 135.301 259.1527
v -2.457281 103.5499 227.5
v -64.87099 135.301 334.8166
v -64.87099 135.301 334.8166
v -2.457281 103.5499 227.5
v -64.87099 103.5499 289.9137
v 82.45727 103.6483 227.5
v -2.318124 103.6483 227.5
v 114.11 135.301 259.1527
v 114.11 135.301 259.1527
v -2.318124 103.6483 227.5
v 10.79287 135.301 259.1527

vn 0 0 -1
vn 0 0 -1
vn 0 0 -1
vn 0 0 -1
vn 0 0 -1
vn 0 0 -1
vn 0 0 1
vn 0 0 1
vn 0 0 1
vn 0 0 1
vn 0 0 1
vn 0 0 1
vn -1 0 0
vn -1 0 0
vn -1 0 0
vn -1 0 0
vn -1 0 0
vn -1 0 0
vn -0.9999999 0 0
vn -0.9999999 0 0
vn -0.9999999 0 0
vn -1 0 0
vn -1 0 0
vn -1 0 0
vn 1 0 0
vn 1 0 0
vn 1 0 0
vn 1 0 0
vn 1 0 0
vn 1 0 0
vn 0.9999999 0 0
vn 0.9999999 0 0
vn 0.9999999 0 0
vn 1 0 0
vn 1 0 0
vn 1 0 0
vn 0 -0.9999999 0
vn 0 -0.9999999 0
vn 0 -0.9999999 0
vn 0 -0.9999999 0
vn 0 -0.9999999 0
vn 0 -0.9999999 0
vn 0 1 0
vn 0 1 0
vn 0 1 0
vn 0 1 0
vn 0 1 0
vn 0 1 0
vn 0 1 0
vn 0 1 0
vn 0 1 0
vn 0 1 0
vn 0 1 0
vn 0 1 0
vn 0 1 0
vn 0 1 0
vn 0 1 0
vn 0 -0.7071067 0.7071068
vn 0 -0.7071067 0.7071068
vn 0 -0.7071067 0.7071068
vn -5.219724E-07 -0.7071072 0.7071063
vn -5.219724E-07 -0.7071072 0.7071063
vn -5.219724E-07 -0.7071072 0.7071063
vn 0 -0.7071068 0.7071068
vn 0 -0.7071068 0.7071068
vn 0 -0.7071068 0.7071068
vn 1.864964E-06 -0.7071076 0.707106
vn 1.864964E-06 -0.7071076 0.707106
vn 1.864964E-06 -0.7071076 0.707106
vn -9.469964E-07 -0.7071064 -0.7071071
vn -9.469964E-07 -0.7071064 -0.7071071
vn -9.469964E-07 -0.7071064 -0.7071071
vn 0 -0.7071068 -0.7071068
vn 0 -0.7071068 -0.7071068
vn 0 -0.7071068 -0.7071068
vn 0 -0.7071068 -0.7071068
vn 0 -0.7071068 -0.7071068
vn 0 -0.7071068 -0.7071068
vn -0.7071066 0 0.7071069
vn -0.7071066 0 0.7071069
vn -0.7071066 0 0.7071069
vn -0.7071066 0 0.7071069
vn -0.7071066 0 0.7071069
vn -0.7071066 0 0.7071069
vn 0.7071067 0 0.7071068
vn 0.7071067 0 0.7071068
vn 0.7071067 0 0.7071068
vn 0.7071067 0 0.7071068
vn 0.7071067 0 0.7071068
vn 0.7071067 0 0.7071068
vn -0.7071068 0 -0.7071067
vn -0.7071068 0 -0.7071067
vn -0.7071068 0 -0.7071067
vn -0.7071068 0 -0.7071066
vn -0.7071068 0 -0.7071066
vn -0.7071068 0 -0.7071066
vn 0 0 -1
vn 0 0 -1
vn 0 0 -1
vn 0 0 -1
vn 0 0 -1
vn 0 0 -1
vn 0 0 1
vn 0 0 1
vn 0 0 1
vn 0 0 1
vn 0 0 1
vn 0 0 1
vn -1 0 0
vn -1 0 0
vn -1 0 0
vn -1 0 0
vn -1 0 0
vn -1 0 0
vn -0.9999999 0 0
vn -0.9999999 0 0
vn -0.9999999 0 0
vn -1 0 0
vn -1 0 0
vn -1 0 0
vn 1 2.663091E-07 0
vn 1 2.663091E-07 0
vn 1 2.663091E-07 0
vn 1 0 -2.680619E-08
vn 1 0 -2.680619E-08
vn 1 0 -2.680619E-08
vn 1 -2.436628E-08 -2.436627E-08
vn 1 -2.436628E-08 -2.436627E-08
vn 1 -2.436628E-08 -2.436627E-08
vn 1 -2.064713E-07 0
vn 1 -2.064713E-07 0
vn 1 -2.064713E-07 0
vn 0 -0.9999999 0
vn 0 -0.9999999 0
vn 0 -0.9999999 0
vn 0 -0.9999999 0
vn 0 -0.9999999 0
vn 0 -0.9999999 0
vn 0 -1 0
vn 0 -1 0
vn 0 -1 0
vn 0 -1 0
vn 0 -1 0
vn 0 -1 0
vn 0 -1 0
vn 0 -1 0
vn 0 -1 0
vn 0 1 0
vn 0 1 0
vn 0 1 0
vn 0 1 0
vn 0 1 0
vn 0 1 0
vn 0 0.7071068 0.7071068
vn 0 0.7071068 0.7071068
vn 0 0.7071068 0.7071068
vn -1.140266E-07 0.7071068 0.7071066
vn -1.140266E-07 0.7071068 0.7071066
vn -1.140266E-07 0.7071068 0.7071066
vn -1.355785E-07 0.7071062 0.7071074
vn -1.355785E-07 0.7071062 0.7071074
vn -1.355785E-07 0.7071062 0.7071074
vn 0 0.7071069 0.7071066
vn 0 0.7071069 0.7071066
vn 0 0.7071069 0.7071066
vn 0 0.7071068 -0.7071068
vn 0 0.7071068 -0.7071068
vn 0 0.7071068 -0.7071068
vn 0 0.7071068 -0.7071068
vn 0 0.7071068 -0.7071068
vn 0 0.7071068 -0.7071068
vn 0 0.7071068 -0.7071068
vn 0 0.7071068 -0.7071068
vn 0 0.7071068 -0.7071068
vn -0.7071069 0 0.7071066
vn -0.7071069 0 0.7071066
vn -0.7071069 0 0.7071066
vn -0.707107 0 0.7071067
vn -0.707107 0 0.7071067
vn -0.707107 0 0.7071067
vn 0.7071067 0 0.7071068
vn 0.7071067 0 0.7071068
vn 0.7071067 0 0.7071068
vn 0.7071066 0 0.7071068
vn 0.7071066 0 0.7071068
vn 0.7071066 0 0.7071068
vn -0.7071068 0 -0.7071068
vn -0.7071068 0 -0.7071068
vn -0.7071068 0 -0.7071068
vn -0.7071068 0 -0.7071068
vn -0.7071068 0 -0.7071068
vn -0.7071068 0 -0.7071068
vn 0 0 -1
vn 0 0 -1
vn 0 0 -1
vn 0 0 -0.9999999
vn 0 0 -0.9999999
vn 0 0 -0.9999999
vn 0 0 -1
vn 0 0 -1
vn 0 0 -1
vn 0 0 1
vn 0 0 1
vn 0 0 1
vn 0 0 1
vn 0 0 1
vn 0 0 1
vn -1 0 0
vn -1 0 0
vn -1 0 0
vn -1 0 0
vn -1 0 0
vn -1 0 0
vn -1 0 0
vn -1 0 0
vn -1 0 0
vn 1 0 0
vn 1 0 0
vn 1 0 0
vn 1 0 0
vn 1 0 0
vn 1 0 0
vn 0 -1 0
vn 0 -1 0
vn 0 -1 0
vn 0 -1 0
vn 0 -1 0
vn 0 -1 0
vn 0 -1 0
vn 0 -1 0
vn 0 -1 0
vn 0 -1 0
vn 0 -1 0
vn 0 -1 0
vn 0 -1 0
vn 0 -1 0
vn 0 -1 0
vn 0 -0.9999999 0
vn 0 -0.9999999 0
vn 0 -0.9999999 0
vn 0 0.9999999 0
vn 0 0.9999999 0
vn 0 0.9999999 0
vn 0 1 0
vn 0 1 0
vn 0 1 0
vn 0 1 0
vn 0 1 0
vn 0 1 0
vn 0 1 0
vn 0 1 0
vn 0 1 0
vn 0 1 0
vn 0 1 0
vn 0 1 0
vn 0 1 0
vn 0 1 0
vn 0 1 0
vn -0.7071069 0 0.7071067
vn -0.7071069 0 0.7071067
vn -0.7071069 0 0.7071067
vn -0.7071069 0 0.7071067
vn -0.7071069 0 0.7071067
vn -0.7071069 0 0.7071067
vn 0.7071067 0 0.7071069
vn 0.7071067 0 0.7071069
vn 0.7071067 0 0.7071069
vn 0.7071067 0 0.7071069
vn 0.7071067 0 0.7071069
vn 0.7071067 0 0.7071069
vn -0.7071068 0 -0.7071068
vn -0.7071068 0 -0.7071068
vn -0.7071068 0 -0.7071068
vn -0.7071068 0 -0.7071068
vn -0.7071068 0 -0.7071068
vn -0.7071068 0 -0.7071068
vn 0.7071067 0 -0.7071069
vn 0.7071067 0 -0.7071069
vn 0.7071067 0 -0.7071069
vn 0.7071067 0 -0.7071069
vn 0.7071067 0 -0.7071069
vn 0.7071067 0 -0.7071069
vn -0.5000001 -0.7071068 -0.5000001
vn -0.5000001 -0.7071068 -0.5000001
vn -0.5000001 -0.7071068 -0.5000001
vn -0.4999999 -0.7071067 -0.4999999
vn -0.4999999 -0.7071067 -0.4999999
vn -0.4999999 -0.7071067 -0.4999999
vn 0 0 -0.9999999
vn 0 0 -0.9999999
vn 0 0 -0.9999999
vn 0 0 -0.9999999
vn 0 0 -0.9999999
vn 0 0 -0.9999999
vn 0 0 1
vn 0 0 1
vn 0 0 1
vn 0 0 1
vn 0 0 1
vn 0 0 1
vn 0 0 1
vn 0 0 1
vn 0 0 1
vn -1 0 0
vn -1 0 0
vn -1 0 0
vn -0.9999999 0 0
vn -0.9999999 0 0
vn -0.9999999 0 0
vn -1 0 0
vn -1 0 0
vn -1 0 0
vn 1 0 0
vn 1 0 0
vn 1 0 0
vn 1 0 0
vn 1 0 0
vn 1 0 0
vn 1 0 0
vn 1 0 0
vn 1 0 0
vn 0 -1 0
vn 0 -1 0
vn 0 -1 0
vn 0 -1 0
vn 0 -1 0
vn 0 -1 0
vn 0 -1 0
vn 0 -1 0
vn 0 -1 0
vn 0 -1 0
vn 0 -1 0
vn 0 -1 0
vn 0 1 0
vn 0 1 0
vn 0 1 0
vn 0 0.9999999 0
vn 0 0.9999999 0
vn 0 0.9999999 0
vn 0 1 0
vn 0 1 0
vn 0 1 0
vn 0 0.9999999 0
vn 0 0.9999999 0
vn 0 0.9999999 0
vn -0.7071068 0 0.7071067
vn -0.7071068 0 0.7071067
vn -0.7071068 0 0.7071067
vn -0.7071068 0 0.7071067
vn -0.7071068 0 0.7071067
vn -0.7071068 0 0.7071067
vn 0.7071068 0 0.7071068
vn 0.7071068 0 0.7071068
vn 0.7071068 0 0.7071068
vn 0.7071067 0 0.7071069
vn 0.7071067 0 0.7071069
vn 0.7071067 0 0.7071069
vn 0.7071066 0 0.7071069
vn 0.7071066 0 0.7071069
vn 0.7071066 0 0.7071069
vn -0.5000029 0.7071028 0.5000027
vn -0.5000029 0.7071028 0.5000027
vn -0.5000029 0.7071028 0.5000027
vn -0.5000004 0.7071064 0.5000002
vn -0.5000004 0.7071064 0.5000002
vn -0.5000004 0.7071064 0.5000002
vn -0.4999999 0.7071068 0.5000001
vn -0.4999999 0.7071068 0.5000001
vn -0.4999999 0.7071068 0.5000001
vn 0 0.7071068 0.7071068
vn 0 0.7071068 0.7071068
vn 0 0.7071068 0.7071068
vn 0 0.7071067 0.7071069
vn 0 0.7071067 0.7071069
vn 0 0.7071067 0.7071069
vn 0 0.7071066 0.7071068
vn 0 0.7071066 0.7071068
vn 0 0.7071066 0.7071068
vn 0.4999999 0.7071067 0.5000001
vn 0.4999999 0.7071067 0.5000001
vn 0.4999999 0.7071067 0.5000001
vn 0.5 0.7071069 0.4999999
vn 0.5 0.7071069 0.4999999
vn 0.5 0.7071069 0.4999999
vn 0 0 -0.9999999
vn 0 0 -0.9999999
vn 0 0 -0.9999999
vn 0 0 -1
vn 0 0 -1
vn 0 0 -1
vn 0 0 -0.9999999
vn 0 0 -0.9999999
vn 0 0 -0.9999999
vn 0 0 1
vn 0 0 1
vn 0 0 1
vn 0 0 1
vn 0 0 1
vn 0 0 1
vn -1 0 0
vn -1 0 0
vn -1 0 0
vn -1 2.639674E-08 -4.143024E-08
vn -1 2.639674E-08 -4.143024E-08
vn -1 2.639674E-08 -4.143024E-08
vn -0.9999999 0 -3.330839E-08
vn -0.9999999 0 -3.330839E-08
vn -0.9999999 0 -3.330839E-08
vn 1 0 0
vn 1 0 0
vn 1 0 0
vn 1 0 0
vn 1 0 0
vn 1 0 0
vn 0 -1 0
vn 0 -1 0
vn 0 -1 0
vn 0 -1 0
vn 0 -1 0
vn 0 -1 0
vn 0 -1 0
vn 0 -1 0
vn 0 -1 0
vn 0 -0.9999999 0
vn 0 -0.9999999 0
vn 0 -0.9999999 0
vn 0 -1 0
vn 0 -1 0
vn 0 -1 0
vn 0 1 0
vn 0 1 0
vn 0 1 0
vn 0 0.9999999 0
vn 0 0.9999999 0
vn 0 0.9999999 0
vn 0 0.9999999 0
vn 0 0.9999999 0
vn 0 0.9999999 0
vn 0 1 0
vn 0 1 0
vn 0 1 0
vn 0 1 0
vn 0 1 0
vn 0 1 0
vn -0.7071069 0 -0.7071067
vn -0.7071069 0 -0.7071067
vn -0.7071069 0 -0.7071067
vn -0.7071069 0 -0.7071067
vn -0.7071069 0 -0.7071067
vn -0.7071069 0 -0.7071067
vn 0.7071067 0 -0.7071068
vn 0.7071067 0 -0.7071068
vn 0.7071067 0 -0.7071068
vn 0.7071067 0 -0.7071068
vn 0.7071067 0 -0.7071068
vn 0.7071067 0 -0.7071068
vn 0.7071066 5.283008E-07 -0.707107
vn 0.7071066 5.283008E-07 -0.707107
vn 0.7071066 5.283008E-07 -0.707107
vn 0.7071066 0 0.7071069
vn 0.7071066 0 0.7071069
vn 0.7071066 0 0.7071069
vn 0.7071066 0 0.7071069
vn 0.7071066 0 0.7071069
vn 0.7071066 0 0.7071069
vn -0.4999864 0.7071121 -0.500006
vn -0.4999864 0.7071121 -0.500006
vn -0.4999864 0.7071121 -0.500006
vn -0.4999999 0.7071069 -0.4999999
vn -0.4999999 0.7071069 -0.4999999
vn -0.4999999 0.7071069 -0.4999999
vn -0.5000002 0.7071066 -0.5000001
vn -0.5000002 0.7071066 -0.5000001
vn -0.5000002 0.7071066 -0.5000001
vn 0 0.7071069 -0.7071067
vn 0 0.7071069 -0.7071067
vn 0 0.7071069 -0.7071067
vn 0 0.7071068 -0.7071066
vn 0 0.7071068 -0.7071066
vn 0 0.7071068 -0.7071066



f 1//1 2//2 3//3
f 4//4 5//5 6//6
f 7//7 8//8 9//9
f 10//10 11//11 12//12
f 13//13 14//14 15//15
f 16//16 17//17 18//18
f 19//19 20//20 21//21
f 22//22 23//23 24//24
f 25//25 26//26 27//27
f 28//28 29//29 30//30
f 31//31 32//32 33//33
f 34//34 35//35 36//36
f 37//37 38//38 39//39
f 40//40 41//41 42//42
f 43//43 44//44 45//45
f 46//46 47//47 48//48
f 49//49 50//50 51//51
f 52//52 53//53 54//54
f 55//55 56//56 57//57
f 58//58 59//59 60//60
f 61//61 62//62 63//63
f 64//64 65//65 66//66
f 67//67 68//68 69//69
f 70//70 71//71 72//72
f 73//73 74//74 75//75
f 76//76 77//77 78//78
f 79//79 80//80 81//81
f 82//82 83//83 84//84
f 85//85 86//86 87//87
f 88//88 89//89 90//90
f 91//91 92//92 93//93
f 94//94 95//95 96//96
f 97//97 98//98 99//99
f 100//100 101//101 102//102
f 103//103 104//104 105//105
f 106//106 107//107 108//108
f 109//109 110//110 111//111
f 112//112 113//113 114//114
f 115//115 116//116 117//117
f 118//118 119//119 120//120
f 121//121 122//122 123//123
f 124//124 125//125 126//126
f 127//127 128//128 129//129
f 130//130 131//131 132//132
f 133//133 134//134 135//135
f 136//136 137//137 138//138
f 139//139 140//140 141//141
f 142//142 143//143 144//144
f 145//145 146//146 147//147
f 148//148 149//149 150//150
f 151//151 152//152 153//153
f 154//154 155//155 156//156
f 157//157 158//158 159//159
f 160//160 161//161 162//162
f 163//163 164//164 165//165
f 166//166 167//167 168//168
f 169//169 170//170 171//171
f 172//172 173//173 174//174
f 175//175 176//176 177//177
f 178//178 179//179 180//180
f 181//181 182//182 183//183
f 184//184 185//185 186//186
f 187//187 188//188 189//189
f 190//190 191//191 192//192
f 193//193 194//194 195//195
f 196//196 197//197 198//198
f 199//199 200//200 201//201
f 202//202 203//203 204//204
f 205//205 206//206 207//207
f 208//208 209//209 210//210
f 211//211 212//212 213//213
f 214//214 215//215 216//216
f 217//217 218//218 219//219
f 220//220 221//221 222//222
f 223//223 224//224 225//225
f 226//226 227//227 228//228
f 229//229 230//230 231//231
f 232//232 233//233 234//234
f 235//235 236//236 237//237
f 238//238 239//239 240//240
f 241//241 242//242 243//243
f 244//244 245//245 246//246
f 247//247 248//248 249//249
f 250//250 251//251 252//252
f 253//253 254//254 255//255
f 256//256 257//257 258//258
f 259//259 260//260 261//261
f 262//262 263//263 264//264
f 265//265 266//266 267//267
f 268//268 269//269 270//270
f 271//271 272//272 273//273
f 274//274 275//275 276//276
f 277//277 278//278 279//279
f 280//280 281//281 282//282
f 283//283 284//284 285//285
f 286//286 287//287 288//288
f 289//289 290//290 291//291
f 292//292 293//293 294//294
f 295//295 296//296 297//297
f 298//298 299//299 300//300
f 301//301 302//302 303//303
f 304//304 305//305 306//306
f 307//307 308//308 309//309
f 310//310 311//311 312//312
f 313//313 314//314 315//315
f 316//316 317//317 318//318
f 319//319 320//320 321//321
f 322//322 323//323 324//324
f 325//325 326//326 327//327
f 328//328 329//329 330//330
f 331//331 332//332 333//333
f 334//334 335//335 336//336
f 337//337 338//338 339//339
f 340//340 341//341 342//342
f 343//343 344//344 345//345
f 346//346 347//347 348//348
f 349//349 350//350 351//351
f 352//352 353//353 354//354
f 355//355 356//356 357//357
f 358//358 359//359 360//360
f 361//361 362//362 363//363
f 364//364 365//365 366//366
f 367//367 368//368 369//369
f 370//370 371//371 372//372
f 373//373 374//374 375//375
f 376//376 377//377 378//378
f 379//379 380//380 381//381
f 382//382 383//383 384//384
f 385//385 386//386 387//387
f 388//388 389//389 390//390
f 391//391 392//392 393//393
f 394//394 395//395 396//396
f 397//397 398//398 399//399
f 400//400 401//401 402//402
f 403//403 404//404 405//405
f 406//406 407//407 408//408
f 409//409 410//410 411//411
f 412//412 413//413 414//414
f 415//415 416//416 417//417
f 418//418 419//419 420//420
f 421//421 422//422 423//423
f 424//424 425//425 426//426
f 427//427 428//428 429//429
f 430//430 431//431 432//432
f 433//433 434//434 435//435
f 436//436 437//437 438//438
f 439//439 440//440 441//441
f 442//442 443//443 444//444
f 445//445 446//446 447//447
f 448//448 449//449 450//450
f 451//451 452//452 453//453
f 454//454 455//455 456//456
f 457//457 458//458 459//459
f 460//460 461//461 462//462
f 463//463 464//464 465//465
f 466//466 467//467 468//468
f 469//469 470//470 471//471
f 472//472 473//473 474//474
f 475//475 476//476 477//477
f 478//478 479//479 480//480
