mtllib Collision_2_1.mtl
usemtl 
g 

v 127.491 60.30593 242.511
v -49.862 60.30593 242.511
v 127.491 96 242.511
v 127.491 96 242.511
v -49.862 60.30593 242.511
v -49.862 96 242.511
v 9.923983 68.95996 847.767
v 70.21303 68.95996 847.767
v 9.923983 96 847.767
v 9.923983 96 847.767
v 70.21303 68.95996 847.767
v 70.21303 96 847.767
v -49.862 -5 672.32
v -49.862 42.90838 787.981
v -49.862 -5 307.8169
v -49.862 -5 307.8169
v -49.862 42.90838 787.981
v -49.862 60.30593 242.511
v -49.862 60.30593 242.511
v -49.862 42.90838 787.981
v -49.862 96 242.511
v -49.862 96 242.511
v -49.862 42.90838 787.981
v -49.862 96 787.981
v 127.491 -5 307.8169
v 127.491 60.30593 242.511
v 127.491 -5 672.32
v 127.491 -5 672.32
v 127.491 60.30593 242.511
v 127.491 43.94723 790.4891
v 127.491 43.94723 790.4891
v 127.491 60.30593 242.511
v 127.491 96 790.4891
v 127.491 96 790.4891
v 127.491 60.30593 242.511
v 127.491 96 242.511
v -49.862 -5 672.32
v -49.862 -5 307.8169
v 127.491 -5 672.32
v 127.491 -5 672.32
v -49.862 -5 307.8169
v 127.491 -5 307.8169
v -49.862 96 242.511
v -49.862 96 787.981
v 127.491 96 242.511
v 127.491 96 242.511
v -49.862 96 787.981
v 127.491 96 790.4891
v 127.491 96 790.4891
v -49.862 96 787.981
v 70.21303 96 847.767
v 70.21303 96 847.767
v -49.862 96 787.981
v 9.923983 96 847.767
v 9.923983 68.95996 847.767
v 7.726226 66.76221 845.5693
v 70.21303 68.95996 847.767
v 70.21303 68.95996 847.767
v 7.726226 66.76221 845.5693
v 72.41078 66.76221 845.5693
v -49.862 -5 307.8169
v -49.862 60.30593 242.511
v 127.491 -5 307.8169
v 127.491 -5 307.8169
v -49.862 60.30593 242.511
v 127.491 60.30593 242.511
v 7.726226 66.76221 845.5693
v 9.923983 68.95996 847.767
v -49.862 42.90838 787.981
v -49.862 42.90838 787.981
v 9.923983 68.95996 847.767
v -49.862 96 787.981
v -49.862 96 787.981
v 9.923983 68.95996 847.767
v 9.923983 96 847.767
v 70.21303 68.95996 847.767
v 72.41078 66.76221 845.5693
v 70.21303 96 847.767
v 70.21303 96 847.767
v 72.41078 66.76221 845.5693
v 127.491 96 790.4891
v 127.491 96 790.4891
v 72.41078 66.76221 845.5693
v 127.491 43.94723 790.4891
v 7.726226 66.76221 845.5693
v -49.862 42.90838 787.981
v 72.41078 66.76221 845.5693
v 72.41078 66.76221 845.5693
v -49.862 42.90838 787.981
v 127.491 43.94723 790.4891
v 127.491 43.94723 790.4891
v -49.862 42.90838 787.981
v 127.491 -5 672.32
v 127.491 -5 672.32
v -49.862 42.90838 787.981
v -49.862 -5 672.32
v 3.455921 -96.2 242.801
v 3.455921 -60.11593 242.801
v 127.199 -96.2 242.801
v 127.199 -96.2 242.801
v 3.455921 -60.11593 242.801
v 127.199 -60.11593 242.801
v 70.15003 -68.95197 847.863
v 9.861916 -68.95197 847.863
v 70.15003 -96.2 847.863
v 70.15003 -96.2 847.863
v 9.861916 -68.95197 847.863
v 9.861916 -96.2 847.863
v -49.87 -96.2 296.1269
v -49.87 -96.2 788.1311
v -49.87 -6.790009 296.1269
v -49.87 -6.790009 296.1269
v -49.87 -96.2 788.1311
v -49.87 5 307.9169
v -49.87 5 307.9169
v -49.87 -96.2 788.1311
v -49.87 5 773.9111
v -49.87 5 773.9111
v -49.87 -96.2 788.1311
v -49.87 -9.220058 788.1311
v 127.199 -96.2 242.801
v 127.199 -60.11593 242.801
v 127.199 -96.2 790.8141
v 127.199 -96.2 790.8141
v 127.199 -60.11593 242.801
v 127.199 -11.90301 790.8141
v 127.199 -11.90301 790.8141
v 127.199 -60.11593 242.801
v 127.199 5 773.9111
v 127.199 5 773.9111
v 127.199 -60.11593 242.801
v 127.199 5 307.9169
v -49.87 -96.2 296.1269
v 3.455921 -96.2 242.801
v -49.87 -96.2 788.1311
v -49.87 -96.2 788.1311
v 3.455921 -96.2 242.801
v 9.861916 -96.2 847.863
v 9.861916 -96.2 847.863
v 3.455921 -96.2 242.801
v 70.15003 -96.2 847.863
v 70.15003 -96.2 847.863
v 3.455921 -96.2 242.801
v 127.199 -96.2 790.8141
v 127.199 -96.2 790.8141
v 3.455921 -96.2 242.801
v 127.199 -96.2 242.801
v -49.87 5 307.9169
v -49.87 5 773.9111
v 127.199 5 307.9169
v 127.199 5 307.9169
v -49.87 5 773.9111
v 127.199 5 773.9111
v 70.15003 -68.95197 847.863
v 127.199 -11.90301 790.8141
v 9.861916 -68.95197 847.863
v 9.861916 -68.95197 847.863
v 127.199 -11.90301 790.8141
v -49.87 -9.220058 788.1311
v -49.87 -9.220058 788.1311
v 127.199 -11.90301 790.8141
v -49.87 5 773.9111
v -49.87 5 773.9111
v 127.199 -11.90301 790.8141
v 127.199 5 773.9111
v 3.455921 -60.11593 242.801
v -49.87 -6.790009 296.1269
v 127.199 -60.11593 242.801
v 127.199 -60.11593 242.801
v -49.87 -6.790009 296.1269
v 127.199 5 307.9169
v 127.199 5 307.9169
v -49.87 -6.790009 296.1269
v -49.87 5 307.9169
v 9.861916 -96.2 847.863
v 9.861916 -68.95197 847.863
v -49.87 -96.2 788.1311
v -49.87 -96.2 788.1311
v 9.861916 -68.95197 847.863
v -49.87 -9.220058 788.1311
v 127.199 -11.90301 790.8141
v 70.15003 -68.95197 847.863
v 127.199 -96.2 790.8141
v 127.199 -96.2 790.8141
v 70.15003 -68.95197 847.863
v 70.15003 -96.2 847.863
v -49.87 -6.790009 296.1269
v 3.455921 -60.11593 242.801
v -49.87 -96.2 296.1269
v -49.87 -96.2 296.1269
v 3.455921 -60.11593 242.801
v 3.455921 -96.2 242.801
v 36.12082 -120.301 242.608
v 3.64893 -97.3399 242.608
v 76.35107 -120.301 242.608
v 76.35107 -120.301 242.608
v 3.64893 -97.3399 242.608
v 76.35107 -79.826 242.608
v 76.35107 -79.826 242.608
v 3.64893 -97.3399 242.608
v 3.64893 -79.826 242.608
v 9.919946 -120.301 847.908
v 70.27102 -120.301 847.908
v 9.919946 -79.826 847.908
v 9.919946 -79.826 847.908
v 70.27102 -120.301 847.908
v 70.27102 -79.826 847.908
v -49.871 -120.301 328.5998
v -49.871 -120.301 788.1171
v -49.871 -97.3399 296.1279
v -49.871 -97.3399 296.1279
v -49.871 -120.301 788.1171
v -49.871 -79.826 296.1279
v -49.871 -79.826 296.1279
v -49.871 -120.301 788.1171
v -49.871 -79.826 788.1171
v 127.476 -120.301 790.7031
v 127.476 -120.301 293.7329
v 127.476 -79.826 790.7031
v 127.476 -79.826 790.7031
v 127.476 -120.301 293.7329
v 127.476 -79.826 293.7329
v 36.12082 -120.301 242.608
v 76.35107 -120.301 242.608
v -49.871 -120.301 328.5998
v -49.871 -120.301 328.5998
v 76.35107 -120.301 242.608
v -49.871 -120.301 788.1171
v -49.871 -120.301 788.1171
v 76.35107 -120.301 242.608
v 9.919946 -120.301 847.908
v 9.919946 -120.301 847.908
v 76.35107 -120.301 242.608
v 70.27102 -120.301 847.908
v 70.27102 -120.301 847.908
v 76.35107 -120.301 242.608
v 127.476 -120.301 790.7031
v 127.476 -120.301 790.7031
v 76.35107 -120.301 242.608
v 127.476 -120.301 293.7329
v -49.871 -79.826 296.1279
v -49.871 -79.826 788.1171
v 3.64893 -79.826 242.608
v 3.64893 -79.826 242.608
v -49.871 -79.826 788.1171
v 76.35107 -79.826 242.608
v 76.35107 -79.826 242.608
v -49.871 -79.826 788.1171
v 127.476 -79.826 293.7329
v 127.476 -79.826 293.7329
v -49.871 -79.826 788.1171
v 127.476 -79.826 790.7031
v 127.476 -79.826 790.7031
v -49.871 -79.826 788.1171
v 70.27102 -79.826 847.908
v 70.27102 -79.826 847.908
v -49.871 -79.826 788.1171
v 9.919946 -79.826 847.908
v -49.871 -120.301 788.1171
v 9.919946 -120.301 847.908
v -49.871 -79.826 788.1171
v -49.871 -79.826 788.1171
v 9.919946 -120.301 847.908
v 9.919946 -79.826 847.908
v 70.27102 -79.826 847.908
v 70.27102 -120.301 847.908
v 127.476 -79.826 790.7031
v 127.476 -79.826 790.7031
v 70.27102 -120.301 847.908
v 127.476 -120.301 790.7031
v 3.64893 -79.826 242.608
v 3.64893 -97.3399 242.608
v -49.871 -79.826 296.1279
v -49.871 -79.826 296.1279
v 3.64893 -97.3399 242.608
v -49.871 -97.3399 296.1279
v 127.476 -120.301 293.7329
v 76.35107 -120.301 242.608
v 127.476 -79.826 293.7329
v 127.476 -79.826 293.7329
v 76.35107 -120.301 242.608
v 76.35107 -79.826 242.608
v -49.871 -97.3399 296.1279
v 3.64893 -97.3399 242.608
v -49.871 -120.301 328.5998
v -49.871 -120.301 328.5998
v 3.64893 -97.3399 242.608
v 36.12082 -120.301 242.608
v 112.967 79.913 460.076
v -46.379 79.913 460.076
v 112.967 120.3 460.076
v 112.967 120.3 460.076
v -46.379 79.913 460.076
v -46.379 120.3 460.076
v 70.27007 79.913 847.896
v 70.27007 97.97412 847.896
v 9.930923 79.913 847.896
v 9.930923 79.913 847.896
v 70.27007 97.97412 847.896
v 9.930923 97.75107 847.896
v 9.930923 97.75107 847.896
v 70.27007 97.97412 847.896
v 10.24637 97.97412 847.896
v -46.379 79.913 791.5861
v -46.379 97.75107 791.5861
v -46.379 79.913 460.076
v -46.379 79.913 460.076
v -46.379 97.75107 791.5861
v -46.379 120.3 460.076
v -46.379 120.3 460.076
v -46.379 97.75107 791.5861
v -46.379 120.3 759.6971
v 112.967 79.913 805.1991
v 112.967 79.913 460.076
v 112.967 98.13428 805.1991
v 112.967 98.13428 805.1991
v 112.967 79.913 460.076
v 112.967 120.3 773.852
v 112.967 120.3 773.852
v 112.967 79.913 460.076
v 112.967 120.3 460.076
v -46.379 79.913 791.5861
v -46.379 79.913 460.076
v 9.930923 79.913 847.896
v 9.930923 79.913 847.896
v -46.379 79.913 460.076
v 70.27007 79.913 847.896
v 70.27007 79.913 847.896
v -46.379 79.913 460.076
v 112.967 79.913 805.1991
v 112.967 79.913 805.1991
v -46.379 79.913 460.076
v 112.967 79.913 460.076
v 19.49405 120.3 825.5701
v 61.24889 120.3 825.5701
v -46.379 120.3 759.6971
v -46.379 120.3 759.6971
v 61.24889 120.3 825.5701
v -46.379 120.3 460.076
v -46.379 120.3 460.076
v 61.24889 120.3 825.5701
v 112.967 120.3 460.076
v 112.967 120.3 460.076
v 61.24889 120.3 825.5701
v 112.967 120.3 773.852
v 9.930923 79.913 847.896
v 9.930923 97.75107 847.896
v -46.379 79.913 791.5861
v -46.379 79.913 791.5861
v 9.930923 97.75107 847.896
v -46.379 97.75107 791.5861
v 70.27007 97.97412 847.896
v 70.27007 79.913 847.896
v 70.43023 98.13428 847.7358
v 70.43023 98.13428 847.7358
v 70.27007 79.913 847.896
v 112.967 98.13428 805.1991
v 112.967 98.13428 805.1991
v 70.27007 79.913 847.896
v 112.967 79.913 805.1991
v 9.930923 97.75107 847.896
v 10.24637 97.97412 847.896
v -46.379 97.75107 791.5861
v -46.379 97.75107 791.5861
v 10.24637 97.97412 847.896
v -46.379 120.3 759.6971
v -46.379 120.3 759.6971
v 10.24637 97.97412 847.896
v 19.49405 120.3 825.5701
v 70.27007 97.97412 847.896
v 70.43023 98.13428 847.7358
v 10.24637 97.97412 847.896
v 10.24637 97.97412 847.896
v 70.43023 98.13428 847.7358
v 19.49405 120.3 825.5701
v 19.49405 120.3 825.5701
v 70.43023 98.13428 847.7358
v 61.24889 120.3 825.5701
v 70.43023 98.13428 847.7358
v 112.967 98.13428 805.1991
v 61.24889 120.3 825.5701
v 61.24889 120.3 825.5701
v 112.967 98.13428 805.1991
v 112.967 120.3 773.852
v 3.755922 79.825 242.5
v 3.755922 97.33666 242.5
v 76.24406 79.825 242.5
v 76.24406 79.825 242.5
v 3.755922 97.33666 242.5
v 76.24406 120.301 242.5
v 76.24406 120.301 242.5
v 3.755922 97.33666 242.5
v 36.2324 120.301 242.5
v -49.871 79.825 503.967
v 86.43909 79.825 503.967
v -49.871 120.301 503.967
v -49.871 120.301 503.967
v 86.43909 79.825 503.967
v 86.43909 120.301 503.967
v -49.871 97.33666 296.1269
v -49.871 79.825 296.1269
v -49.871 120.301 328.6034
v -49.871 120.301 328.6034
v -49.871 79.825 296.1269
v -49.871 120.301 503.967
v -49.871 120.301 503.967
v -49.871 79.825 296.1269
v -49.871 79.825 503.967
v 127.5 79.825 409.1416
v 127.5 79.825 293.7559
v 127.5 120.301 409.1416
v 127.5 120.301 409.1416
v 127.5 79.825 293.7559
v 127.5 120.301 293.7559
v 3.755922 79.825 242.5
v 76.24406 79.825 242.5
v -49.871 79.825 296.1269
v -49.871 79.825 296.1269
v 76.24406 79.825 242.5
v -49.871 79.825 503.967
v -49.871 79.825 503.967
v 76.24406 79.825 242.5
v 86.43909 79.825 503.967
v 86.43909 79.825 503.967
v 76.24406 79.825 242.5
v 89.4828 79.825 500.9233
v 89.4828 79.825 500.9233
v 76.24406 79.825 242.5
v 127.5 79.825 409.1416
v 127.5 79.825 409.1416
v 76.24406 79.825 242.5
v 127.5 79.825 293.7559
v 36.2324 120.301 242.5
v -49.871 120.301 328.6034
v 76.24406 120.301 242.5
v 76.24406 120.301 242.5
v -49.871 120.301 328.6034
v 127.5 120.301 293.7559
v 127.5 120.301 293.7559
v -49.871 120.301 328.6034
v 127.5 120.301 409.1416
v 127.5 120.301 409.1416
v -49.871 120.301 328.6034
v 89.4828 120.301 500.9233
v 89.4828 120.301 500.9233
v -49.871 120.301 328.6034
v 86.43909 120.301 503.967
v 86.43909 120.301 503.967
v -49.871 120.301 328.6034
v -49.871 120.301 503.967
v 3.755922 97.33666 242.5
v 3.755922 79.825 242.5
v -49.871 97.33666 296.1269
v -49.871 97.33666 296.1269
v 3.755922 79.825 242.5
v -49.871 79.825 296.1269
v 127.5 79.825 293.7559
v 76.24406 79.825 242.5
v 127.5 120.301 293.7559
v 127.5 120.301 293.7559
v 76.24406 79.825 242.5
v 76.24406 120.301 242.5
v 86.43909 79.825 503.967
v 89.4828 79.825 500.9233
v 86.43909 120.301 503.967
v 86.43909 120.301 503.967
v 89.4828 79.825 500.9233
v 89.4828 120.301 500.9233
v 89.4828 79.825 500.9233
v 127.5 79.825 409.1416
v 89.4828 120.301 500.9233
v 89.4828 120.301 500.9233
v 127.5 79.825 409.1416
v 127.5 120.301 409.1416
v 36.2324 120.301 242.5
v 3.755922 97.33666 242.5
v -49.871 120.301 328.6034
v -49.871 120.301 328.6034
v 3.755922 97.33666 242.5
v -49.871 97.33666 296.1269

vn 0 0 -0.9999999
vn 0 0 -0.9999999
vn 0 0 -0.9999999
vn 0 0 -0.9999999
vn 0 0 -0.9999999
vn 0 0 -0.9999999
vn 0 0 1
vn 0 0 1
vn 0 0 1
vn 0 0 1
vn 0 0 1
vn 0 0 1
vn -1 0 0
vn -1 0 0
vn -1 0 0
vn -1 0 0
vn -1 0 0
vn -1 0 0
vn -1 0 0
vn -1 0 0
vn -1 0 0
vn -1 0 0
vn -1 0 0
vn -1 0 0
vn 1 0 0
vn 1 0 0
vn 1 0 0
vn 0.9999999 0 0
vn 0.9999999 0 0
vn 0.9999999 0 0
vn 1 0 0
vn 1 0 0
vn 1 0 0
vn 1 0 0
vn 1 0 0
vn 1 0 0
vn 0 -1 0
vn 0 -1 0
vn 0 -1 0
vn 0 -1 0
vn 0 -1 0
vn 0 -1 0
vn 0 1 0
vn 0 1 0
vn 0 1 0
vn 0 0.9999999 0
vn 0 0.9999999 0
vn 0 0.9999999 0
vn 0 1 0
vn 0 1 0
vn 0 1 0
vn 0 1 0
vn 0 1 0
vn 0 1 0
vn 0 -0.7071068 0.7071068
vn 0 -0.7071068 0.7071068
vn 0 -0.7071068 0.7071068
vn 0 -0.7071068 0.7071068
vn 0 -0.7071068 0.7071068
vn 0 -0.7071068 0.7071068
vn 0 -0.7071068 -0.7071068
vn 0 -0.7071068 -0.7071068
vn 0 -0.7071068 -0.7071068
vn 0 -0.7071068 -0.7071068
vn 0 -0.7071068 -0.7071068
vn 0 -0.7071068 -0.7071068
vn -0.7071074 2.328481E-06 0.7071062
vn -0.7071074 2.328481E-06 0.7071062
vn -0.7071074 2.328481E-06 0.7071062
vn -0.7071069 0 0.7071066
vn -0.7071069 0 0.7071066
vn -0.7071069 0 0.7071066
vn -0.707107 0 0.7071066
vn -0.707107 0 0.7071066
vn -0.707107 0 0.7071066
vn 0.7071068 0 0.7071068
vn 0.7071068 0 0.7071068
vn 0.7071068 0 0.7071068
vn 0.7071066 -1.030844E-07 0.7071069
vn 0.7071066 -1.030844E-07 0.7071069
vn 0.7071066 -1.030844E-07 0.7071069
vn 0.7071066 0 0.7071069
vn 0.7071066 0 0.7071069
vn 0.7071066 0 0.7071069
vn 0 -0.9238796 0.3826833
vn 0 -0.9238796 0.3826833
vn 0 -0.9238796 0.3826833
vn -9.676352E-08 -0.9238795 0.3826835
vn -9.676352E-08 -0.9238795 0.3826835
vn -9.676352E-08 -0.9238795 0.3826835
vn -1.07625E-07 -0.9238795 0.3826834
vn -1.07625E-07 -0.9238795 0.3826834
vn -1.07625E-07 -0.9238795 0.3826834
vn 0 -0.9238795 0.3826836
vn 0 -0.9238795 0.3826836
vn 0 -0.9238795 0.3826836
vn 0 0 -1
vn 0 0 -1
vn 0 0 -1
vn 0 0 -1
vn 0 0 -1
vn 0 0 -1
vn 0 0 1
vn 0 0 1
vn 0 0 1
vn 0 0 1
vn 0 0 1
vn 0 0 1
vn -1 0 0
vn -1 0 0
vn -1 0 0
vn -1 0 0
vn -1 0 0
vn -1 0 0
vn -1 0 0
vn -1 0 0
vn -1 0 0
vn -1 0 0
vn -1 0 0
vn -1 0 0
vn 1 0 0
vn 1 0 0
vn 1 0 0
vn 1 0 0
vn 1 0 0
vn 1 0 0
vn 0.9999999 0 0
vn 0.9999999 0 0
vn 0.9999999 0 0
vn 1 0 0
vn 1 0 0
vn 1 0 0
vn 0 -1 0
vn 0 -1 0
vn 0 -1 0
vn 0 -1 0
vn 0 -1 0
vn 0 -1 0
vn 0 -1 0
vn 0 -1 0
vn 0 -1 0
vn 0 -1 0
vn 0 -1 0
vn 0 -1 0
vn 0 -1 0
vn 0 -1 0
vn 0 -1 0
vn 0 1 0
vn 0 1 0
vn 0 1 0
vn 0 1 0
vn 0 1 0
vn 0 1 0
vn 0 0.7071067 0.7071069
vn 0 0.7071067 0.7071069
vn 0 0.7071067 0.7071069
vn -1.356932E-07 0.7071068 0.7071066
vn -1.356932E-07 0.7071068 0.7071066
vn -1.356932E-07 0.7071068 0.7071066
vn -1.585489E-07 0.7071061 0.7071075
vn -1.585489E-07 0.7071061 0.7071075
vn -1.585489E-07 0.7071061 0.7071075
vn 0 0.7071069 0.7071066
vn 0 0.7071069 0.7071066
vn 0 0.7071069 0.7071066
vn 0 0.7071067 -0.7071068
vn 0 0.7071067 -0.7071068
vn 0 0.7071067 -0.7071068
vn 3.743134E-09 0.7071068 -0.7071069
vn 3.743134E-09 0.7071068 -0.7071069
vn 3.743134E-09 0.7071068 -0.7071069
vn 0 0.7071068 -0.7071068
vn 0 0.7071068 -0.7071068
vn 0 0.7071068 -0.7071068
vn -0.7071069 0 0.7071067
vn -0.7071069 0 0.7071067
vn -0.7071069 0 0.7071067
vn -0.7071069 0 0.7071066
vn -0.7071069 0 0.7071066
vn -0.7071069 0 0.7071066
vn 0.7071067 0 0.7071069
vn 0.7071067 0 0.7071069
vn 0.7071067 0 0.7071069
vn 0.7071067 0 0.7071069
vn 0.7071067 0 0.7071069
vn 0.7071067 0 0.7071069
vn -0.7071068 0 -0.7071068
vn -0.7071068 0 -0.7071068
vn -0.7071068 0 -0.7071068
vn -0.7071068 0 -0.7071069
vn -0.7071068 0 -0.7071069
vn -0.7071068 0 -0.7071069
vn 0 0 -1
vn 0 0 -1
vn 0 0 -1
vn 0 0 -1
vn 0 0 -1
vn 0 0 -1
vn 0 0 -1
vn 0 0 -1
vn 0 0 -1
vn 0 0 1
vn 0 0 1
vn 0 0 1
vn 0 0 1
vn 0 0 1
vn 0 0 1
vn -1 0 0
vn -1 0 0
vn -1 0 0
vn -1 0 0
vn -1 0 0
vn -1 0 0
vn -0.9999999 0 0
vn -0.9999999 0 0
vn -0.9999999 0 0
vn 1 0 0
vn 1 0 0
vn 1 0 0
vn 1 0 0
vn 1 0 0
vn 1 0 0
vn 0 -1 0
vn 0 -1 0
vn 0 -1 0
vn 0 -1 0
vn 0 -1 0
vn 0 -1 0
vn 0 -1 0
vn 0 -1 0
vn 0 -1 0
vn 0 -1 0
vn 0 -1 0
vn 0 -1 0
vn 0 -1 0
vn 0 -1 0
vn 0 -1 0
vn 0 -1 0
vn 0 -1 0
vn 0 -1 0
vn 0 1 0
vn 0 1 0
vn 0 1 0
vn 0 1 0
vn 0 1 0
vn 0 1 0
vn 0 1 0
vn 0 1 0
vn 0 1 0
vn 0 1 0
vn 0 1 0
vn 0 1 0
vn 0 1 0
vn 0 1 0
vn 0 1 0
vn 0 1 0
vn 0 1 0
vn 0 1 0
vn -0.7071068 0 0.7071067
vn -0.7071068 0 0.7071067
vn -0.7071068 0 0.7071067
vn -0.7071068 0 0.7071067
vn -0.7071068 0 0.7071067
vn -0.7071068 0 0.7071067
vn 0.7071066 0 0.7071068
vn 0.7071066 0 0.7071068
vn 0.7071066 0 0.7071068
vn 0.7071066 0 0.7071068
vn 0.7071066 0 0.7071068
vn 0.7071066 0 0.7071068
vn -0.7071068 0 -0.7071068
vn -0.7071068 0 -0.7071068
vn -0.7071068 0 -0.7071068
vn -0.7071068 0 -0.7071068
vn -0.7071068 0 -0.7071068
vn -0.7071068 0 -0.7071068
vn 0.7071068 0 -0.7071067
vn 0.7071068 0 -0.7071067
vn 0.7071068 0 -0.7071067
vn 0.7071068 0 -0.7071067
vn 0.7071068 0 -0.7071067
vn 0.7071068 0 -0.7071067
vn -0.4999999 -0.7071069 -0.4999999
vn -0.4999999 -0.7071069 -0.4999999
vn -0.4999999 -0.7071069 -0.4999999
vn -0.5 -0.7071068 -0.4999999
vn -0.5 -0.7071068 -0.4999999
vn -0.5 -0.7071068 -0.4999999
vn 0 0 -0.9999999
vn 0 0 -0.9999999
vn 0 0 -0.9999999
vn 0 0 -0.9999999
vn 0 0 -0.9999999
vn 0 0 -0.9999999
vn 0 0 1
vn 0 0 1
vn 0 0 1
vn 0 0 1
vn 0 0 1
vn 0 0 1
vn 0 0 0.9999999
vn 0 0 0.9999999
vn 0 0 0.9999999
vn -1 0 0
vn -1 0 0
vn -1 0 0
vn -1 0 0
vn -1 0 0
vn -1 0 0
vn -1 0 0
vn -1 0 0
vn -1 0 0
vn 1 0 0
vn 1 0 0
vn 1 0 0
vn 1 0 0
vn 1 0 0
vn 1 0 0
vn 1 0 0
vn 1 0 0
vn 1 0 0
vn 0 -1 0
vn 0 -1 0
vn 0 -1 0
vn 0 -0.9999999 0
vn 0 -0.9999999 0
vn 0 -0.9999999 0
vn 0 -0.9999999 0
vn 0 -0.9999999 0
vn 0 -0.9999999 0
vn 0 -1 0
vn 0 -1 0
vn 0 -1 0
vn 0 1 0
vn 0 1 0
vn 0 1 0
vn 0 1 0
vn 0 1 0
vn 0 1 0
vn 0 1 0
vn 0 1 0
vn 0 1 0
vn 0 1 0
vn 0 1 0
vn 0 1 0
vn -0.7071068 0 0.7071066
vn -0.7071068 0 0.7071066
vn -0.7071068 0 0.7071066
vn -0.7071068 0 0.7071066
vn -0.7071068 0 0.7071066
vn -0.7071068 0 0.7071066
vn 0.7071068 0 0.7071068
vn 0.7071068 0 0.7071068
vn 0.7071068 0 0.7071068
vn 0.7071065 0 0.7071069
vn 0.7071065 0 0.7071069
vn 0.7071065 0 0.7071069
vn 0.7071066 0 0.707107
vn 0.7071066 0 0.707107
vn 0.7071066 0 0.707107
vn -0.4999996 0.7071075 0.4999995
vn -0.4999996 0.7071075 0.4999995
vn -0.4999996 0.7071075 0.4999995
vn -0.5000003 0.7071064 0.5000002
vn -0.5000003 0.7071064 0.5000002
vn -0.5000003 0.7071064 0.5000002
vn -0.5000001 0.7071066 0.5000001
vn -0.5000001 0.7071066 0.5000001
vn -0.5000001 0.7071066 0.5000001
vn 0 0.7071068 0.7071068
vn 0 0.7071068 0.7071068
vn 0 0.7071068 0.7071068
vn 0 0.7071065 0.7071071
vn 0 0.7071065 0.7071071
vn 0 0.7071065 0.7071071
vn 0 0.7071065 0.707107
vn 0 0.7071065 0.707107
vn 0 0.7071065 0.707107
vn 0.5 0.7071065 0.5000002
vn 0.5 0.7071065 0.5000002
vn 0.5 0.7071065 0.5000002
vn 0.4999999 0.7071071 0.4999996
vn 0.4999999 0.7071071 0.4999996
vn 0.4999999 0.7071071 0.4999996
vn 0 0 -0.9999999
vn 0 0 -0.9999999
vn 0 0 -0.9999999
vn 0 0 -1
vn 0 0 -1
vn 0 0 -1
vn 0 0 -1
vn 0 0 -1
vn 0 0 -1
vn 0 0 1
vn 0 0 1
vn 0 0 1
vn 0 0 1
vn 0 0 1
vn 0 0 1
vn -1 0 0
vn -1 0 0
vn -1 0 0
vn -1 0 0
vn -1 0 0
vn -1 0 0
vn -1 0 0
vn -1 0 0
vn -1 0 0
vn 1 0 0
vn 1 0 0
vn 1 0 0
vn 1 0 0
vn 1 0 0
vn 1 0 0
vn 0 -1 0
vn 0 -1 0
vn 0 -1 0
vn 0 -0.9999999 0
vn 0 -0.9999999 0
vn 0 -0.9999999 0
vn 0 -1 0
vn 0 -1 0
vn 0 -1 0
vn 0 -1 0
vn 0 -1 0
vn 0 -1 0
vn 0 -1 0
vn 0 -1 0
vn 0 -1 0
vn 0 -0.9999999 0
vn 0 -0.9999999 0
vn 0 -0.9999999 0
vn 0 1 0
vn 0 1 0
vn 0 1 0
vn 0 1 0
vn 0 1 0
vn 0 1 0
vn 0 1 0
vn 0 1 0
vn 0 1 0
vn 0 1 0
vn 0 1 0
vn 0 1 0
vn 0 1 0
vn 0 1 0
vn 0 1 0
vn 0 1 0
vn 0 1 0
vn 0 1 0
vn -0.7071068 0 -0.7071068
vn -0.7071068 0 -0.7071068
vn -0.7071068 0 -0.7071068
vn -0.7071068 0 -0.7071068
vn -0.7071068 0 -0.7071068
vn -0.7071068 0 -0.7071068
vn 0.7071066 0 -0.7071069
vn 0.7071066 0 -0.7071069
vn 0.7071066 0 -0.7071069
vn 0.7071066 0 -0.7071069
vn 0.7071066 0 -0.7071069
vn 0.7071066 0 -0.7071069
vn 0.7071068 0 0.7071068
vn 0.7071068 0 0.7071068
vn 0.7071068 0 0.7071068
vn 0.7071068 0 0.7071068
vn 0.7071068 0 0.7071068
vn 0.7071068 0 0.7071068
vn 0.9238796 0 0.3826834
vn 0.9238796 0 0.3826834
vn 0.9238796 0 0.3826834
vn 0.9238796 0 0.3826834
vn 0.9238796 0 0.3826834
vn 0.9238796 0 0.3826834
vn -0.5 0.7071068 -0.5
vn -0.5 0.7071068 -0.5
vn -0.5 0.7071068 -0.5
vn -0.5 0.7071068 -0.5
vn -0.5 0.7071068 -0.5
vn -0.5 0.7071068 -0.5



f 1//1 2//2 3//3
f 4//4 5//5 6//6
f 7//7 8//8 9//9
f 10//10 11//11 12//12
f 13//13 14//14 15//15
f 16//16 17//17 18//18
f 19//19 20//20 21//21
f 22//22 23//23 24//24
f 25//25 26//26 27//27
f 28//28 29//29 30//30
f 31//31 32//32 33//33
f 34//34 35//35 36//36
f 37//37 38//38 39//39
f 40//40 41//41 42//42
f 43//43 44//44 45//45
f 46//46 47//47 48//48
f 49//49 50//50 51//51
f 52//52 53//53 54//54
f 55//55 56//56 57//57
f 58//58 59//59 60//60
f 61//61 62//62 63//63
f 64//64 65//65 66//66
f 67//67 68//68 69//69
f 70//70 71//71 72//72
f 73//73 74//74 75//75
f 76//76 77//77 78//78
f 79//79 80//80 81//81
f 82//82 83//83 84//84
f 85//85 86//86 87//87
f 88//88 89//89 90//90
f 91//91 92//92 93//93
f 94//94 95//95 96//96
f 97//97 98//98 99//99
f 100//100 101//101 102//102
f 103//103 104//104 105//105
f 106//106 107//107 108//108
f 109//109 110//110 111//111
f 112//112 113//113 114//114
f 115//115 116//116 117//117
f 118//118 119//119 120//120
f 121//121 122//122 123//123
f 124//124 125//125 126//126
f 127//127 128//128 129//129
f 130//130 131//131 132//132
f 133//133 134//134 135//135
f 136//136 137//137 138//138
f 139//139 140//140 141//141
f 142//142 143//143 144//144
f 145//145 146//146 147//147
f 148//148 149//149 150//150
f 151//151 152//152 153//153
f 154//154 155//155 156//156
f 157//157 158//158 159//159
f 160//160 161//161 162//162
f 163//163 164//164 165//165
f 166//166 167//167 168//168
f 169//169 170//170 171//171
f 172//172 173//173 174//174
f 175//175 176//176 177//177
f 178//178 179//179 180//180
f 181//181 182//182 183//183
f 184//184 185//185 186//186
f 187//187 188//188 189//189
f 190//190 191//191 192//192
f 193//193 194//194 195//195
f 196//196 197//197 198//198
f 199//199 200//200 201//201
f 202//202 203//203 204//204
f 205//205 206//206 207//207
f 208//208 209//209 210//210
f 211//211 212//212 213//213
f 214//214 215//215 216//216
f 217//217 218//218 219//219
f 220//220 221//221 222//222
f 223//223 224//224 225//225
f 226//226 227//227 228//228
f 229//229 230//230 231//231
f 232//232 233//233 234//234
f 235//235 236//236 237//237
f 238//238 239//239 240//240
f 241//241 242//242 243//243
f 244//244 245//245 246//246
f 247//247 248//248 249//249
f 250//250 251//251 252//252
f 253//253 254//254 255//255
f 256//256 257//257 258//258
f 259//259 260//260 261//261
f 262//262 263//263 264//264
f 265//265 266//266 267//267
f 268//268 269//269 270//270
f 271//271 272//272 273//273
f 274//274 275//275 276//276
f 277//277 278//278 279//279
f 280//280 281//281 282//282
f 283//283 284//284 285//285
f 286//286 287//287 288//288
f 289//289 290//290 291//291
f 292//292 293//293 294//294
f 295//295 296//296 297//297
f 298//298 299//299 300//300
f 301//301 302//302 303//303
f 304//304 305//305 306//306
f 307//307 308//308 309//309
f 310//310 311//311 312//312
f 313//313 314//314 315//315
f 316//316 317//317 318//318
f 319//319 320//320 321//321
f 322//322 323//323 324//324
f 325//325 326//326 327//327
f 328//328 329//329 330//330
f 331//331 332//332 333//333
f 334//334 335//335 336//336
f 337//337 338//338 339//339
f 340//340 341//341 342//342
f 343//343 344//344 345//345
f 346//346 347//347 348//348
f 349//349 350//350 351//351
f 352//352 353//353 354//354
f 355//355 356//356 357//357
f 358//358 359//359 360//360
f 361//361 362//362 363//363
f 364//364 365//365 366//366
f 367//367 368//368 369//369
f 370//370 371//371 372//372
f 373//373 374//374 375//375
f 376//376 377//377 378//378
f 379//379 380//380 381//381
f 382//382 383//383 384//384
f 385//385 386//386 387//387
f 388//388 389//389 390//390
f 391//391 392//392 393//393
f 394//394 395//395 396//396
f 397//397 398//398 399//399
f 400//400 401//401 402//402
f 403//403 404//404 405//405
f 406//406 407//407 408//408
f 409//409 410//410 411//411
f 412//412 413//413 414//414
f 415//415 416//416 417//417
f 418//418 419//419 420//420
f 421//421 422//422 423//423
f 424//424 425//425 426//426
f 427//427 428//428 429//429
f 430//430 431//431 432//432
f 433//433 434//434 435//435
f 436//436 437//437 438//438
f 439//439 440//440 441//441
f 442//442 443//443 444//444
f 445//445 446//446 447//447
f 448//448 449//449 450//450
f 451//451 452//452 453//453
f 454//454 455//455 456//456
f 457//457 458//458 459//459
f 460//460 461//461 462//462
f 463//463 464//464 465//465
f 466//466 467//467 468//468
f 469//469 470//470 471//471
f 472//472 473//473 474//474
f 475//475 476//476 477//477
f 478//478 479//479 480//480
